<?xml version="1.0" standalone="no"?>
<!DOCTYPE svg PUBLIC "-//W3C//DTD SVG 20010904//EN"
 "http://www.w3.org/TR/2001/REC-SVG-20010904/DTD/svg10.dtd">
<svg version="1.0" xmlns="http://www.w3.org/2000/svg"
 width="512.000000pt" height="512.000000pt" viewBox="0 0 512.000000 512.000000"
 preserveAspectRatio="xMidYMid meet">
<metadata>
Created by potrace 1.16, written by Peter Selinger 2001-2019
</metadata>
<g transform="translate(0.000000,512.000000) scale(0.100000,-0.100000)"
fill="#000000" stroke="none">
<path d="M2529 4808 c-42 -21 -90 -58 -141 -109 l-78 -78 0 66 0 66 -21 -19
c-33 -28 -89 -121 -109 -176 l-17 -49 -13 30 c-7 17 -16 31 -20 31 -18 0 -33
-148 -22 -216 l9 -52 -73 -7 -74 -7 36 -56 c20 -31 54 -78 75 -104 l40 -47
-53 -27 -53 -27 85 -21 85 -21 -2 -37 c-2 -34 0 -38 22 -38 32 0 107 -29 121
-46 6 -8 20 -14 30 -14 47 -1 43 -17 -10 -44 -30 -15 -60 -25 -65 -21 -6 3
-32 -11 -59 -33 -37 -31 -66 -44 -132 -61 -49 -12 -91 -29 -100 -39 -8 -10
-35 -31 -60 -45 -87 -51 -85 -46 -55 -118 29 -71 27 -115 -6 -158 -23 -29 -45
-104 -54 -186 -6 -55 -11 -65 -61 -117 -56 -59 -97 -135 -109 -200 -5 -24 -14
-39 -27 -44 -23 -7 -34 -33 -49 -121 -6 -38 -17 -82 -24 -98 -6 -17 -9 -38 -5
-49 3 -10 -6 -73 -22 -140 l-27 -121 47 -42 c26 -24 63 -48 82 -53 31 -10 43
-8 104 20 l68 31 -7 55 c-5 45 -3 59 11 75 15 17 16 24 5 62 -7 23 -17 47 -22
53 -15 18 3 53 65 128 31 38 56 73 56 79 0 5 21 32 46 59 54 57 78 109 94 198
6 36 21 81 33 100 l22 35 3 -42 c3 -36 9 -47 41 -70 34 -24 39 -32 37 -65 -1
-21 -5 -40 -8 -44 -4 -3 -4 -13 -1 -21 4 -9 -1 -21 -12 -29 -10 -8 -15 -20
-11 -29 3 -9 -11 -50 -32 -93 -21 -42 -49 -103 -61 -134 -20 -50 -36 -69 -132
-150 l-110 -93 6 -46 5 -46 -77 -46 c-43 -26 -96 -62 -117 -81 l-40 -34 27
-39 c15 -21 35 -48 45 -61 l18 -23 49 40 c27 23 52 41 56 41 12 0 -23 -125
-47 -169 -30 -54 -30 -55 3 -34 l26 17 -7 -54 c-7 -52 -11 -58 -87 -131 -43
-41 -79 -83 -79 -92 0 -9 16 -42 35 -74 19 -32 35 -61 35 -64 0 -4 -18 -38
-40 -75 l-40 -69 74 -75 c82 -84 120 -135 111 -149 -3 -5 -1 -12 5 -16 15 -9
12 -205 -4 -251 -7 -22 -11 -43 -10 -49 4 -11 -94 -77 -170 -115 -37 -18 -65
-43 -98 -88 -27 -35 -48 -70 -48 -78 0 -27 51 -36 175 -31 97 3 139 10 220 34
55 17 119 36 143 43 24 6 46 18 49 27 4 9 2 47 -3 85 -7 49 -6 74 2 91 7 12
24 51 38 87 45 109 88 175 119 178 18 2 51 30 109 95 133 147 121 125 98 192
-11 32 -20 63 -20 69 0 6 29 43 65 83 l65 71 -16 69 -16 68 58 95 59 95 3 -42
c2 -23 10 -47 18 -53 10 -10 14 -38 14 -119 l0 -106 36 -20 37 -20 -6 -108 -7
-108 77 -47 c84 -52 97 -63 196 -175 63 -71 70 -76 105 -74 36 2 38 0 84 -77
60 -99 68 -127 75 -249 3 -54 10 -100 14 -103 5 -3 9 -14 9 -24 0 -28 73 -98
128 -122 33 -15 69 -22 119 -22 86 -1 107 13 105 70 -1 31 -58 170 -117 286
-7 15 -9 30 -4 35 5 5 5 23 -1 43 -6 19 -10 69 -10 110 -1 41 -5 94 -9 117 -8
39 -6 46 32 95 44 60 59 91 51 112 -3 7 7 42 21 77 26 62 27 64 9 94 -9 16
-35 52 -57 78 l-40 48 12 81 c13 92 13 90 -62 174 -45 50 -46 52 -41 105 6 51
4 56 -29 94 -56 66 -117 157 -111 167 7 10 -36 96 -68 137 -10 13 -18 35 -18
48 0 13 -5 33 -10 44 -8 14 -7 25 4 41 14 20 13 24 -14 55 -16 18 -34 52 -40
75 -11 43 -56 119 -114 192 -17 23 -29 49 -28 61 2 12 -3 27 -11 33 -22 19
-14 82 14 103 21 16 22 21 12 38 -11 18 -9 23 25 47 20 15 53 40 73 55 l37 28
32 -40 c17 -22 49 -51 69 -65 37 -24 38 -27 44 -100 4 -41 14 -88 22 -104 8
-16 12 -36 9 -44 -3 -9 8 -51 24 -95 18 -46 32 -102 33 -135 3 -56 2 -57 -32
-74 -40 -20 -59 -67 -62 -150 -2 -44 2 -57 20 -71 12 -10 28 -34 36 -54 23
-54 56 -71 130 -65 48 4 73 12 108 36 55 37 59 51 59 195 0 74 4 103 14 111
11 8 15 50 19 167 3 86 2 160 -2 165 -4 5 -16 39 -25 76 -10 37 -40 106 -67
152 -48 85 -48 85 -57 211 -9 121 -11 129 -47 186 l-37 61 17 61 c10 34 21 88
25 120 l6 58 -60 28 c-34 16 -92 34 -129 41 -47 9 -76 20 -92 36 -21 21 -27
22 -54 13 -28 -10 -35 -8 -67 20 l-35 31 -26 -20 c-24 -19 -27 -19 -53 -4 -15
9 -45 32 -66 50 l-39 33 40 2 c22 1 49 1 60 1 13 -1 7 5 -17 16 l-36 17 81 52
80 53 -56 0 -57 0 73 70 c76 74 76 72 -7 55 l-24 -5 29 54 c16 30 40 85 53
123 13 37 27 77 32 88 6 17 5 18 -7 8 -11 -8 -135 -63 -144 -63 -2 0 0 40 3
89 5 92 -5 221 -16 221 -4 0 -18 -18 -32 -40 -24 -38 -25 -39 -33 -17 -5 12
-12 70 -15 130 l-7 107 -110 -65 c-60 -36 -121 -73 -134 -83 l-24 -17 7 30 c4
17 18 54 31 83 13 28 20 52 16 52 -4 0 -37 -14 -72 -32z m275 -213 c7 -89 -3
-80 -27 25 l-15 65 2 -104 c0 -62 -3 -105 -9 -108 -6 -2 -9 16 -7 44 l3 48
-18 -27 c-23 -34 -68 -69 -77 -61 -3 4 8 23 26 42 32 35 32 35 2 8 -16 -15
-33 -27 -36 -27 -3 0 -8 13 -11 29 -3 16 -9 40 -12 53 -5 21 -1 27 25 38 23 9
39 29 62 74 16 34 40 72 52 84 l21 24 6 -64 c3 -34 9 -99 13 -143z m-273 157
c-7 -16 -11 -53 -9 -81 l3 -53 45 39 c50 44 130 97 136 90 3 -2 -4 -25 -15
-50 -16 -37 -25 -46 -53 -52 -38 -9 -107 -42 -160 -79 l-38 -25 0 25 c0 13 7
41 15 62 15 35 15 36 -1 20 -9 -9 -25 -40 -35 -70 -18 -52 -18 -52 -20 -18 -3
69 3 115 19 134 27 30 114 97 120 92 2 -3 -1 -18 -7 -34z m-242 -149 c1 -32
-13 -46 -21 -21 -2 6 -4 -13 -4 -43 0 -30 -6 -67 -13 -84 l-12 -30 -24 40
c-29 47 -26 63 24 160 35 68 36 69 42 40 4 -17 7 -45 8 -62z m86 27 c-9 -30
13 -167 35 -217 17 -38 17 -43 3 -32 -21 18 -53 88 -53 119 0 18 -3 21 -11 13
-21 -21 8 -107 53 -158 l41 -46 27 69 c15 39 41 93 59 121 17 28 31 54 31 58
0 4 -31 -24 -70 -62 -55 -55 -70 -65 -70 -49 0 12 10 34 22 49 22 28 138 108
145 101 3 -2 16 -55 30 -118 27 -123 33 -222 16 -253 -9 -16 -13 -7 -18 53 -4
40 -10 71 -12 69 -2 -3 -8 -33 -12 -68 -8 -53 -8 -43 -6 56 3 100 3 109 -5 55
-4 -36 -13 -78 -19 -93 -6 -16 -11 -40 -12 -55 l0 -27 -11 23 c-9 18 -8 39 4
88 9 36 12 62 8 57 -16 -16 -49 -112 -56 -162 -6 -45 -8 -49 -25 -40 -10 5
-22 22 -25 37 -9 35 -24 53 -37 45 -6 -4 -8 0 -4 11 4 10 3 15 -3 11 -5 -3
-16 8 -25 25 -22 42 -29 38 -21 -12 9 -56 0 -45 -18 23 -8 31 -15 43 -15 29
-1 -43 19 -112 40 -142 24 -33 23 -36 -11 -40 -51 -6 -96 133 -79 242 4 30 29
97 54 148 43 86 64 117 50 72z m504 -148 c-9 -84 -30 -153 -59 -197 l-20 -30
0 31 c0 18 11 62 25 98 32 86 31 92 -5 34 -28 -46 -100 -108 -124 -108 -6 0 3
9 19 19 17 11 44 31 60 46 21 18 13 15 -28 -11 -31 -20 -59 -35 -61 -33 -3 2
-7 15 -10 29 -5 22 1 29 49 58 31 19 74 58 101 93 26 33 51 56 54 52 4 -4 4
-41 -1 -81z m-706 -68 c9 -18 28 -46 43 -63 15 -18 24 -35 20 -38 -3 -3 -14 5
-25 18 -24 28 -28 13 -5 -19 15 -21 14 -22 -14 -22 -47 0 -56 21 -59 134 -3
96 -2 99 10 61 8 -22 21 -54 30 -71z m27 34 c0 -7 9 -24 20 -38 25 -32 28 -59
3 -39 -14 12 -43 68 -43 84 0 11 20 4 20 -7z m490 -12 c0 -8 -4 -18 -10 -21
-5 -3 -10 -4 -10 -1 0 2 -3 11 -6 20 -4 11 -1 16 10 16 9 0 16 -6 16 -14z
m311 -104 c-6 -11 -7 -23 -3 -27 4 -5 2 -5 -5 -1 -7 4 -34 -9 -61 -29 -27 -19
-52 -35 -56 -35 -3 0 -6 15 -6 33 0 30 4 33 68 58 37 15 68 25 70 24 2 -2 -1
-12 -7 -23z m-222 -55 c-6 -14 -18 -28 -27 -32 -13 -5 -13 -3 0 17 8 13 18 29
22 36 14 23 17 6 5 -21z m62 -55 c-12 -43 -65 -122 -82 -122 -6 0 -2 12 9 28
35 51 35 52 -2 37 -46 -19 -59 -18 -23 1 42 23 27 27 -25 7 -26 -9 -53 -13
-64 -9 -18 7 -18 9 4 27 13 10 43 24 65 30 74 20 98 31 109 53 10 18 13 18 16
4 2 -9 -2 -34 -7 -56z m134 16 c-22 -43 -92 -116 -130 -134 -30 -15 -30 -15 5
14 34 30 34 30 10 34 l-25 3 29 25 c16 14 50 44 75 67 50 46 62 43 36 -9z
m-747 21 c20 -7 34 -21 41 -41 6 -17 9 -33 7 -35 -2 -2 -23 1 -48 7 -24 6 -63
10 -86 8 l-43 -3 56 -43 c55 -43 64 -64 32 -70 -32 -6 -177 154 -161 179 7 13
165 11 202 -2z m370 -95 c51 -35 67 -114 32 -155 l-19 -24 -1 23 c0 32 -25 76
-56 101 -25 20 -26 22 -10 46 19 29 24 30 54 9z m-123 -18 c18 -13 18 -14 -3
-20 -11 -4 -44 -33 -73 -64 -45 -49 -55 -39 -11 11 8 9 13 20 9 23 -7 8 -60
-83 -53 -94 3 -5 -1 -28 -8 -53 l-14 -44 -12 44 c-20 75 3 146 63 189 36 25
74 28 102 8z m-172 -39 c-48 -53 -95 -163 -51 -119 16 16 25 15 25 -2 0 -8
-15 -21 -33 -29 l-32 -16 -6 40 c-8 49 12 99 50 126 54 38 81 38 47 0z m418
-29 c9 -17 3 -48 -10 -48 -6 0 -13 16 -39 90 -7 19 36 -17 49 -42z m254 32
c-7 -11 -87 -53 -122 -64 -42 -13 -24 9 30 36 72 37 104 47 92 28z m-408 -62
c31 -29 29 -58 -8 -96 -17 -18 -34 -32 -38 -33 -42 -5 -59 -5 -78 4 -26 12
-27 16 -9 40 13 16 14 16 21 -5 6 -20 8 -17 14 19 7 41 43 93 65 93 5 0 20
-10 33 -22z m-407 -3 c30 -15 43 -42 16 -32 -7 3 -35 9 -61 13 -46 6 -47 7
-24 20 31 17 34 17 69 -1z m630 -20 c6 -19 8 -45 5 -57 -9 -29 -44 -68 -62
-68 -20 0 -16 13 8 29 18 10 19 15 8 22 -11 7 -11 9 3 9 20 0 32 32 23 61 -6
19 -7 20 -20 2 -18 -24 -30 -10 -13 16 19 30 35 26 48 -14z m130 -15 c13 -9
13 -10 0 -10 -8 0 -33 -2 -55 -5 l-40 -5 35 14 c43 18 42 18 60 6z m-244 -66
c42 16 -30 -104 -86 -141 -63 -44 -135 -21 -171 55 -12 24 -20 44 -18 46 2 2
20 -2 39 -10 l35 -12 -30 -2 c-29 -2 -29 -2 -5 -9 17 -5 31 -3 43 7 9 8 17 12
17 9 0 -3 12 1 28 8 16 9 28 11 30 5 2 -6 16 -10 30 -9 l27 1 -25 8 -25 8 30
7 c21 4 35 17 45 38 14 30 15 31 18 9 2 -16 8 -22 18 -18z m-65 7 c-6 -10 -21
-21 -33 -24 -20 -5 -20 -3 7 18 36 30 39 30 26 6z m279 7 c-46 -19 -80 -27
-80 -18 0 4 17 12 38 18 49 13 73 13 42 0z m-590 -43 c16 -19 3 -19 -30 0 -24
13 -24 14 -4 15 12 0 27 -7 34 -15z m75 -43 c-6 -7 -35 18 -35 31 0 5 9 2 20
-8 11 -10 18 -20 15 -23z m475 -59 c44 -31 80 -59 80 -63 0 -4 -8 -14 -17 -22
-14 -11 -34 -14 -84 -10 -56 3 -69 8 -77 26 l-11 21 0 -22 c-1 -12 -5 -25 -11
-28 -5 -3 -8 0 -6 7 2 7 12 43 21 81 9 37 19 67 21 67 2 0 39 -25 84 -57z
m-160 -47 c-12 -61 -21 -71 -69 -81 l-34 -7 23 38 c89 147 102 155 80 50z
m-271 51 c-2 -2 -26 -18 -54 -36 l-50 -32 39 35 c22 20 46 36 54 36 9 0 13 -2
11 -3z m57 -62 c28 -28 55 -45 70 -45 30 0 30 -11 0 -39 l-23 -22 -32 48 -31
48 6 -43 c6 -35 4 -41 -9 -37 -8 4 -22 23 -30 43 l-15 37 -2 -30 c-1 -16 -2
-32 -2 -35 0 -3 -26 -3 -59 -2 -32 2 -59 7 -59 11 0 11 31 38 88 77 26 18 48
33 49 33 1 1 23 -19 49 -44z m544 0 c0 -8 8 -19 18 -24 15 -9 13 -14 -21 -42
-21 -17 -36 -33 -34 -35 2 -3 30 11 62 31 33 19 64 35 71 35 18 0 225 -50 236
-57 6 -3 -19 -22 -54 -43 -87 -53 -174 -134 -220 -204 -21 -32 -38 -53 -38
-45 0 22 26 113 39 137 6 12 9 22 7 22 -8 0 -51 -88 -66 -134 -7 -21 -16 -62
-19 -90 l-7 -51 -12 66 c-11 58 -10 74 7 139 11 41 34 101 50 135 l31 60 -34
-36 c-68 -72 -95 -200 -74 -344 l8 -50 -17 35 c-18 37 -25 210 -11 260 4 14
-2 5 -15 -20 -42 -85 -18 -295 42 -372 l20 -25 -31 -23 c-43 -31 -150 -91
-155 -86 -2 2 20 21 49 42 29 20 58 41 63 46 15 14 -166 -53 -195 -71 -13 -9
-21 -11 -17 -4 4 6 28 25 54 42 25 17 41 31 35 31 -6 0 -48 -25 -93 -55 -45
-30 -84 -55 -87 -55 -11 0 55 63 111 107 31 24 55 49 52 54 -22 34 -261 -33
-304 -85 -18 -21 -5 -20 33 3 35 22 115 54 160 65 26 6 28 5 17 -8 -12 -14
-42 -34 -219 -142 -31 -19 -61 -30 -70 -27 -42 15 -147 100 -213 173 -40 44
-74 78 -77 76 -8 -9 55 -95 116 -158 68 -70 70 -93 5 -35 -21 18 -47 39 -57
47 -18 14 -19 14 -8 -6 6 -11 18 -26 26 -34 24 -19 19 -30 -14 -30 -33 0 -50
26 -50 76 0 13 -15 50 -32 82 -32 56 -33 60 -32 172 1 105 4 124 37 215 26 73
30 93 16 75 -24 -33 -47 -100 -68 -208 l-18 -87 -12 130 c-7 77 -9 148 -4 175
8 44 9 45 68 60 33 9 75 24 93 33 17 10 32 16 32 14 0 -2 -11 -31 -25 -66 -14
-34 -28 -89 -30 -124 l-6 -62 21 75 c27 97 66 183 95 210 21 20 20 14 -13 -72
-30 -79 -36 -108 -40 -196 -5 -120 5 -169 55 -267 l35 -70 -77 73 c-42 41 -79
71 -82 68 -15 -14 99 -154 161 -199 l31 -22 -29 38 c-35 45 -18 50 20 5 49
-60 57 -61 95 -21 33 35 26 37 -16 4 -11 -8 32 39 96 104 137 142 273 300 354
410 32 44 81 104 108 132 47 50 67 58 67 28z m-172 -73 l23 -7 -30 -31 c-22
-23 -59 -40 -143 -67 -178 -58 -222 -67 -226 -50 -7 29 49 92 106 119 69 33
213 52 270 36z m-380 -47 l43 -18 -35 -32 c-32 -29 -42 -50 -37 -77 1 -11 -55
-8 -113 5 -64 16 -93 51 -80 99 6 21 18 35 34 40 39 11 140 2 188 -17z m-483
-97 l-9 -83 -8 54 c-13 90 -21 73 -16 -34 l5 -99 -39 78 c-44 88 -44 90 31
138 25 15 45 28 46 28 0 0 -4 -37 -10 -82z m805 34 c0 -12 -37 -60 -110 -141
-56 -62 -78 -79 -158 -116 -51 -25 -103 -47 -116 -51 -27 -6 -141 38 -171 67
-14 14 -3 11 41 -11 97 -50 125 -50 230 3 98 50 93 59 -12 25 -172 -53 -274
-1 -274 141 0 51 1 53 18 38 31 -28 91 -47 150 -48 55 -1 212 37 332 79 67 23
70 24 70 14z m563 -121 c2 -22 2 -54 -2 -73 l-8 -33 -7 35 c-4 19 -15 46 -23
59 -14 22 -14 25 3 38 27 20 31 17 37 -26z m-47 -26 c7 -19 14 -55 14 -81 0
-40 -2 -45 -17 -39 -21 9 -112 44 -132 51 -9 3 9 22 50 54 35 27 65 50 67 50
2 0 10 -16 18 -35z m-1319 3 c-3 -8 -6 -5 -6 6 -1 11 2 17 5 13 3 -3 4 -12 1
-19z m-33 -107 c-3 -3 -14 5 -26 16 -14 14 -18 27 -14 40 7 15 10 13 26 -17
10 -19 16 -37 14 -39z m1464 -28 c14 -33 22 -76 25 -136 l5 -89 -29 34 -29 33
21 -60 c15 -41 34 -70 59 -92 40 -34 85 -123 95 -188 6 -37 5 -39 -9 -21 -9
11 -16 28 -16 37 0 10 -4 21 -10 24 -6 4 -10 -7 -10 -25 0 -18 -4 -29 -10 -25
-5 3 -10 27 -10 53 0 52 -11 47 -29 -15 -11 -40 -15 -43 -45 -43 -18 0 -54
-11 -80 -25 -26 -14 -49 -25 -51 -25 -8 0 -25 76 -25 113 l0 37 35 -22 c19
-13 35 -31 35 -40 0 -9 4 -19 9 -23 9 -5 20 153 12 176 -1 5 -10 2 -18 -8 -12
-16 -13 -10 -8 51 5 48 4 66 -4 62 -6 -4 -11 -15 -11 -26 0 -24 -65 -80 -94
-80 -31 0 -101 72 -130 135 -27 57 -41 125 -31 155 15 47 123 66 192 34 19
-10 48 -34 65 -55 35 -43 45 -45 27 -6 -10 22 -8 30 10 53 11 15 21 33 21 40
0 28 17 13 38 -33z m-1519 -46 c-16 -29 -28 -59 -28 -67 0 -8 9 3 19 25 24 55
58 88 79 79 9 -3 26 -9 39 -11 19 -5 22 -12 24 -57 3 -81 -1 -105 -22 -146
-23 -44 -71 -75 -104 -66 -23 6 -46 43 -46 74 0 15 -2 15 -10 2 -6 -8 -8 -36
-4 -63 5 -37 3 -46 -8 -42 -10 4 -12 -8 -8 -57 l4 -63 6 45 5 45 8 -43 c4 -23
4 -54 1 -67 -5 -19 -2 -25 9 -25 16 0 37 54 37 93 0 11 8 17 24 17 13 0 32 3
41 6 15 6 15 4 1 -31 -13 -30 -66 -113 -96 -148 -4 -4 -28 3 -53 16 -25 14
-70 28 -100 31 l-55 7 9 40 c15 63 46 116 103 176 53 54 54 56 64 139 6 47 21
105 32 131 19 44 21 45 39 29 18 -17 18 -18 -10 -69z m583 -14 c-6 -2 -9 -10
-6 -15 4 -7 2 -8 -5 -4 -13 9 -5 26 12 25 9 0 8 -2 -1 -6z m-72 -28 c17 9 34
14 37 11 3 -2 -10 -12 -28 -21 -26 -14 -39 -15 -68 -6 -20 6 -45 17 -56 26
-13 10 -3 8 31 -6 49 -20 53 -20 84 -4z m-413 -307 c-3 -8 -6 -5 -6 6 -1 11 2
17 5 13 3 -3 4 -12 1 -19z m823 3 c33 -6 6 -9 -105 -10 -82 -1 -170 -6 -195
-10 -25 -5 -79 -14 -120 -20 -41 -7 -103 -19 -138 -28 -34 -9 -65 -13 -68 -10
-13 13 9 25 68 36 35 6 81 16 103 22 91 23 369 35 455 20z m-515 -17 c-86 -16
-105 -17 -105 -5 0 10 51 17 130 18 40 1 37 -1 -25 -13z m-333 -51 c-11 -21
-35 -51 -53 -68 l-33 -30 33 39 c18 21 40 53 49 72 8 19 17 32 19 30 3 -2 -5
-21 -15 -43z m1368 26 c0 -14 -16 -11 -29 5 -10 12 -8 13 8 9 12 -3 21 -9 21
-14z m-811 -3 c-2 -2 -40 -18 -84 -36 -44 -17 -84 -36 -89 -41 -6 -5 -17 -9
-25 -9 -23 0 45 39 114 66 54 21 95 30 84 20z m-178 -36 c-30 -17 -64 -30 -75
-30 -16 0 -17 -3 -7 -9 9 -6 -2 -11 -34 -15 -26 -4 -49 -5 -52 -2 -8 7 55 37
132 62 93 30 100 29 36 -6z m359 15 c-47 -7 -131 -25 -188 -40 -116 -31 -147
-28 -49 4 90 30 191 49 262 49 l60 0 -85 -13z m46 -26 c-32 -5 -61 -11 -63
-13 -3 -2 26 -7 64 -11 111 -11 97 -13 -67 -13 -85 0 -148 2 -140 5 52 21 154
41 205 41 l60 0 -59 -9z m-971 -59 c23 -11 53 -33 66 -48 l24 -27 -25 21 c-51
44 -92 58 -167 59 -39 0 -69 3 -66 8 10 16 127 7 168 -13z m1763 -10 c51 -23
57 -36 6 -15 -75 31 -174 15 -231 -38 -13 -11 -23 -16 -23 -10 0 5 10 19 23
31 56 52 150 66 225 32z m-1814 -6 c13 -5 12 -12 -6 -49 -21 -43 -22 -43 -80
-47 l-60 -3 7 40 c3 21 11 45 17 52 11 13 93 18 122 7z m1055 -59 c36 -77 47
-85 20 -15 -21 55 -23 70 -11 70 12 0 86 -119 105 -168 17 -42 17 -43 -3 -32
-17 9 -172 141 -230 196 -12 12 -7 14 37 14 l51 0 31 -65z m-570 23 c-14 -49
-11 -56 10 -24 39 59 51 49 22 -16 -41 -92 -47 -122 -11 -57 18 32 45 72 61
90 l30 34 -30 -60 c-42 -86 -69 -187 -76 -284 -3 -46 -9 -89 -12 -94 -7 -12
-33 66 -33 101 0 36 -17 25 -24 -15 -3 -21 -6 -86 -6 -145 l0 -106 -53 -56
c-30 -30 -69 -84 -87 -118 l-33 -63 50 47 c48 44 126 98 183 128 18 9 13 1
-15 -24 -42 -39 -32 -39 22 0 l32 24 6 -21 c6 -16 13 -20 36 -17 17 3 29 0 29
-6 0 -27 -123 -189 -205 -270 l-90 -90 120 81 c66 44 151 106 188 137 66 54
77 61 77 52 0 -14 -277 -257 -339 -298 -40 -26 -68 -48 -61 -48 19 0 228 110
297 156 l62 42 -42 -52 c-23 -28 -65 -74 -94 -102 -64 -63 -272 -204 -337
-229 -43 -17 -51 -17 -74 -4 -15 8 -41 35 -59 59 -18 25 -39 54 -48 65 -17 23
26 -88 61 -157 13 -26 38 -63 54 -82 29 -32 33 -34 61 -24 17 6 92 52 168 103
188 126 229 152 211 130 -8 -10 -39 -36 -68 -57 -56 -42 -63 -55 -18 -39 29
12 31 9 15 -20 -10 -19 -9 -20 13 -8 13 7 49 39 81 71 43 44 57 54 57 39 0
-33 -108 -112 -280 -205 -176 -96 -234 -113 -269 -82 -21 19 -61 105 -65 139
-6 54 -29 147 -37 147 -4 0 -9 -16 -11 -36 l-3 -35 -33 60 -33 61 26 34 c15
19 46 51 71 71 l44 36 0 -30 c0 -38 19 -129 29 -135 3 -3 3 37 -2 87 -6 61 -6
129 2 202 l11 110 69 65 c55 52 77 82 109 150 22 47 48 94 57 105 15 19 15 18
1 -11 -16 -34 -69 -234 -63 -240 2 -2 11 22 21 54 15 46 95 266 145 395 16 42
5 32 -28 -25 -16 -29 -43 -69 -60 -88 -41 -48 -40 -23 4 91 32 84 37 118 14
104 -12 -8 3 32 53 138 45 95 68 118 37 37 -10 -28 -19 -63 -18 -78 0 -21 9
-8 39 56 41 86 55 104 39 50z m337 -52 c22 -60 28 -49 16 28 -7 40 -6 56 2 53
12 -4 41 -83 77 -210 12 -42 24 -75 27 -73 2 3 -1 42 -7 87 -7 44 -10 83 -8
86 11 10 86 -116 113 -189 15 -42 30 -75 32 -73 2 2 -6 34 -17 72 l-20 68 125
-130 125 -130 -5 -55 c-4 -54 -2 -54 22 11 8 21 8 21 27 -7 17 -26 17 -36 6
-124 -6 -52 -14 -106 -17 -120 -5 -22 -1 -20 33 16 25 27 48 68 65 115 l27 74
0 -45 c2 -137 -81 -310 -148 -310 -36 0 -109 28 -163 63 -54 34 -202 166 -195
173 2 2 41 -11 88 -30 146 -58 149 -49 7 24 -81 42 -158 90 -189 118 -49 44
-56 47 -100 44 l-46 -4 -7 54 c-16 145 -17 203 -7 321 16 178 29 201 32 57 2
-168 16 -203 18 -45 1 128 11 183 24 133 4 -12 7 -48 8 -78 l1 -55 9 40 c4 22
8 60 9 85 1 49 4 46 36 -44z m958 53 c3 -17 6 -53 6 -80 l0 -49 -60 0 c-35 0
-74 -7 -90 -15 -17 -9 -30 -12 -30 -8 0 5 -7 29 -15 55 -13 46 -13 49 8 73 26
30 87 54 138 55 33 0 37 -3 43 -31z m-1145 -55 c-12 -70 -7 -343 7 -394 7 -22
6 -24 -9 -11 -60 48 -64 355 -6 463 18 33 21 14 8 -58z m556 31 c15 -19 42
-62 60 -96 24 -46 34 -57 37 -43 4 14 11 6 28 -31 12 -27 34 -62 48 -77 14
-15 23 -30 21 -32 -7 -8 -146 92 -169 121 -21 27 -28 59 -10 48 12 -7 -2 30
-35 97 -28 56 -17 63 20 13z m-1238 -62 c3 -8 -6 -12 -24 -11 -15 1 -40 -1
-55 -5 -21 -6 -28 -4 -28 7 0 8 8 17 18 19 30 9 85 2 89 -10z m-12 -53 c4 -6
-9 -10 -32 -10 -21 0 -49 -3 -63 -7 -22 -6 -24 -5 -11 10 15 19 95 24 106 7z
m1790 -19 l-50 -7 60 -13 c53 -12 115 -36 115 -45 0 -1 -26 6 -57 17 -41 13
-76 18 -120 15 -67 -4 -76 2 -41 26 15 11 42 15 83 14 l60 -1 -50 -6z m-1798
-33 c77 -62 90 -94 52 -134 l-20 -21 27 5 c22 4 26 2 21 -12 -4 -9 -2 -16 3
-16 15 0 12 -36 -3 -49 -16 -13 -37 4 -37 31 0 10 -5 18 -11 18 -5 0 -15 14
-21 30 -5 17 -19 35 -30 41 -16 9 -17 13 -6 26 12 15 11 15 -9 4 -30 -15 -29
-34 1 -50 24 -13 51 -59 41 -69 -2 -3 -23 0 -46 7 -22 7 -43 10 -46 7 -6 -6
40 -26 58 -26 6 0 9 -8 7 -17 -5 -27 -46 -28 -74 -2 -13 12 -24 18 -24 13 0
-6 13 -23 30 -39 28 -26 32 -27 56 -15 14 8 30 22 35 32 9 18 29 16 29 -1 0
-11 -79 -63 -89 -59 -5 2 -28 20 -51 42 l-43 39 21 99 c12 55 26 106 33 114
14 17 74 18 96 2z m655 -300 c16 -25 16 -26 -2 -21 -11 3 -29 26 -41 51 -29
58 -30 137 -4 222 l20 65 5 -145 c4 -115 9 -152 22 -172z m1184 267 c27 -8 60
-24 74 -35 23 -19 22 -19 -19 1 -51 26 -137 36 -180 21 -36 -13 -42 0 -8 16
32 15 76 14 133 -3z m-1716 -103 c0 -15 -5 -22 -12 -20 -8 3 -14 25 -15 54
l-2 49 14 -30 c8 -16 14 -40 15 -53z m211 17 c-11 -24 -47 -71 -80 -103 l-60
-60 -11 29 c-6 15 -7 32 -3 36 34 33 168 147 170 145 2 -2 -6 -23 -16 -47z
m1481 -1 l2 -53 3 48 c4 51 5 52 34 37 17 -10 19 -22 19 -117 0 -58 2 -104 5
-101 3 3 9 45 14 94 l8 89 2 -86 c1 -96 -7 -151 -21 -147 -6 2 -26 -11 -45
-29 -19 -19 -49 -40 -66 -49 l-32 -15 25 23 c14 13 38 33 54 45 25 20 28 29
33 104 5 61 3 80 -5 75 -7 -4 -12 -31 -12 -59 0 -71 -10 -86 -45 -63 -26 17
-26 17 -54 -13 -32 -34 -57 -39 -87 -16 -18 14 -18 16 14 42 18 16 32 35 31
43 0 9 -4 5 -9 -7 -5 -13 -14 -23 -19 -23 -14 0 -2 32 17 47 12 10 13 17 2 43
-16 39 -29 47 -22 15 3 -16 -1 -27 -11 -31 -9 -3 -13 -12 -10 -20 6 -16 -15
-74 -27 -74 -4 0 -14 7 -21 17 -11 12 -11 17 -2 20 8 3 10 15 7 33 -11 52 13
96 74 139 44 31 67 40 100 40 l42 1 2 -52z m-1552 -167 c-53 -99 -197 -257
-216 -238 -17 17 45 107 137 202 56 58 104 103 107 101 2 -3 -10 -32 -28 -65z
m-327 -40 c-4 -6 -81 62 -82 73 -1 5 18 -9 42 -30 24 -22 42 -41 40 -43z m147
65 c0 -10 -96 -66 -113 -66 -11 0 8 15 44 35 69 37 69 37 69 31z m1715 -94
c-83 -72 -116 -82 -145 -47 -15 18 -6 19 20 3 16 -10 25 -8 57 19 21 18 47 32
58 32 11 1 15 -3 10 -7z m-775 -217 c13 -8 13 -7 0 10 -38 48 58 -26 160 -122
155 -146 178 -154 253 -92 43 36 83 107 108 194 l17 60 16 -38 c14 -33 15 -47
6 -94 -15 -71 -82 -201 -131 -254 l-39 -42 -67 6 c-38 3 -97 16 -133 30 -36
13 -74 28 -85 32 -36 13 58 -63 116 -95 71 -38 171 -54 211 -34 41 21 103 109
138 198 30 75 32 84 25 165 l-7 86 33 -32 c33 -32 33 -33 30 -120 l-3 -88 51
-67 51 -67 -10 -88 c-5 -48 -18 -122 -30 -163 -47 -170 -104 -340 -114 -340
-19 1 -146 63 -282 138 -72 39 -136 72 -143 72 -9 0 -11 9 -6 33 4 17 9 35 11
39 2 3 44 -17 93 -45 48 -29 134 -74 190 -102 99 -48 103 -49 117 -31 19 26
55 123 61 166 l6 35 -32 -40 c-38 -47 -78 -75 -106 -75 -35 1 -106 38 -230
121 -93 62 -125 89 -143 121 -24 46 -27 47 66 -35 56 -49 288 -187 315 -187
22 0 86 77 113 137 33 73 57 233 36 233 -5 0 -15 -33 -23 -72 l-14 -73 -5 120
-5 120 -13 -63 c-7 -34 -22 -83 -32 -108 -11 -25 -20 -53 -20 -62 -1 -9 -7
-30 -15 -47 -10 -19 -13 -22 -9 -8 5 23 5 23 -24 6 -26 -15 -39 -16 -96 -6
-37 6 -86 21 -109 33 -78 41 -287 219 -286 244 1 5 -18 24 -41 42 -43 34 -35
48 9 18 23 -16 23 -16 16 7 -4 13 -16 44 -26 68 -10 24 -19 45 -19 48 0 2 21
-10 46 -27 66 -46 279 -138 291 -127 2 2 -19 16 -47 31 -91 49 -231 170 -303
261 l-32 40 40 -31 c22 -17 47 -35 55 -39z m716 -237 c48 -72 48 -75 0 -25
-44 47 -56 67 -37 67 4 0 21 -19 37 -42z m-1116 -83 c0 -15 -314 -241 -388
-279 -32 -16 -35 -16 -65 3 -18 11 -27 21 -20 21 6 0 15 -4 18 -10 3 -5 16
-10 27 -10 20 0 254 151 373 241 53 40 55 41 55 34z m438 -107 c33 -54 59 -98
56 -98 -16 0 -113 72 -117 87 -12 41 -19 128 -9 118 5 -5 37 -54 70 -107z
m790 -156 l21 -39 -33 -69 c-33 -67 -151 -254 -161 -254 -8 0 32 96 81 195 39
81 44 99 44 159 0 77 8 78 48 8z m-754 7 c23 -18 26 -28 27 -82 l0 -62 117
-81 c64 -44 157 -104 205 -133 90 -54 113 -80 37 -41 -64 33 -371 210 -402
232 -27 18 -28 23 -28 104 0 46 4 84 9 84 4 0 20 -9 35 -21z m-1060 -50 c9
-27 31 -77 51 -109 37 -60 117 -140 141 -140 8 0 31 15 51 33 52 46 170 138
213 166 58 38 -87 -94 -175 -159 -44 -33 -92 -69 -107 -80 l-26 -20 -116 121
c-64 67 -116 126 -116 132 0 10 59 107 66 107 2 0 10 -23 18 -51z m499 -190
c-18 -18 -171 -100 -222 -120 -100 -37 -75 -4 46 61 65 35 132 70 148 80 25
14 31 14 33 2 2 -8 0 -18 -5 -23z m-117 -155 c18 -15 18 -15 -6 -10 -14 3 -38
6 -55 6 -23 0 -27 3 -15 10 22 14 54 12 76 -6z m-259 -39 c-5 -30 -2 -34 24
-44 64 -24 85 -30 114 -34 18 -2 10 -4 -20 -5 -27 -1 -67 5 -87 12 -30 11 -38
11 -38 1 0 -11 74 -39 130 -48 14 -2 2 -5 -27 -6 -28 0 -63 3 -77 9 -20 7 -26
6 -26 -4 0 -7 20 -19 45 -26 25 -7 45 -17 45 -21 0 -12 -25 -11 -73 3 l-40 12
7 65 c3 37 6 81 6 99 0 22 4 31 11 26 7 -4 9 -20 6 -39z m103 -29 c-6 -6 -23
-6 -47 0 -28 6 -39 15 -41 31 l-3 22 50 -22 c34 -14 48 -24 41 -31z m1471 40
c-14 -16 -129 -61 -137 -53 -3 3 16 12 43 21 26 9 59 23 73 31 32 18 35 18 21
1z m-21 -65 c0 -10 -55 -31 -79 -30 -9 0 2 9 24 20 45 21 55 23 55 10z m10
-36 c0 -10 -10 -15 -32 -14 l-33 1 30 13 c17 8 31 14 33 15 1 0 2 -7 2 -15z
m-2 -37 c-3 -7 -20 -14 -39 -15 l-34 -3 30 14 c38 18 48 19 43 4z m12 -37 c0
-9 -35 -21 -60 -20 -8 0 -1 7 15 14 36 17 45 18 45 6z m-1498 -45 c48 -13 50
-15 18 -15 -43 0 -122 29 -128 47 -3 11 3 10 27 -2 17 -9 54 -23 83 -30z
m1498 15 c0 -5 -14 -14 -31 -20 -50 -17 -58 -11 -14 10 47 22 45 21 45 10z
m-1622 -68 c-18 -19 -43 -39 -55 -44 -34 -13 -28 -26 21 -48 54 -23 75 -55 48
-70 -15 -8 -23 -3 -46 26 -16 19 -46 43 -67 52 l-39 18 37 19 c21 10 56 36 78
56 49 46 69 38 23 -9z m1647 33 c-29 -19 -92 -38 -112 -33 -13 3 -9 6 12 11
17 4 44 13 60 21 40 19 66 19 40 1z m-1510 -34 c-7 -7 -95 19 -95 28 0 5 22 1
50 -8 27 -9 48 -18 45 -20z m-115 -23 c-9 -16 -8 -24 5 -39 19 -21 25 -20 115
24 76 37 91 34 50 -9 -38 -40 -110 -85 -134 -85 -8 0 -21 8 -28 18 -7 10 -26
27 -41 37 l-28 18 27 28 c32 34 49 38 34 8z m1659 -19 c1 -4 -15 -4 -35 -2
l-36 4 29 18 c25 15 29 15 35 1 4 -9 7 -18 7 -21z m-197 -40 c2 -20 8 -25 30
-23 l28 2 -28 -24 c-15 -13 -30 -21 -34 -17 -11 12 -22 108 -10 97 6 -5 12
-21 14 -35z m216 -7 c16 -16 15 -16 -8 -10 -14 4 -42 7 -63 7 -23 0 -36 4 -32
10 10 17 85 12 103 -7z m-1800 -18 c38 -17 82 -52 82 -67 0 -5 -17 -16 -37
-25 -46 -19 -243 -31 -243 -15 0 6 23 36 51 66 57 62 80 68 147 41z m1685 -20
c-41 -17 -56 -46 -43 -80 13 -35 25 -38 111 -26 l74 10 -76 -5 c-85 -5 -106 6
-95 50 9 35 84 63 134 50 61 -15 108 -110 86 -173 -8 -23 -16 -26 -61 -29 -29
-2 -66 3 -85 11 -50 21 -128 95 -128 120 1 39 52 86 95 86 14 0 11 -4 -12 -14z
m-1416 -51 c-3 -3 -12 -4 -19 -1 -8 3 -5 6 6 6 11 1 17 -2 13 -5z m-40 -10
c-3 -3 -12 -4 -19 -1 -8 3 -5 6 6 6 11 1 17 -2 13 -5z m-147 -44 c-14 -4 -34
-8 -45 -8 -16 0 -15 2 5 8 14 4 34 8 45 8 16 0 15 -2 -5 -8z m-232 -17 c-10
-2 -26 -2 -35 0 -10 3 -2 5 17 5 19 0 27 -2 18 -5z m135 0 c-13 -2 -35 -2 -50
0 -16 2 -5 4 22 4 28 0 40 -2 28 -4z"/>
<path d="M2520 3850 c-9 -6 -10 -10 -3 -10 6 0 15 5 18 10 8 12 4 12 -15 0z"/>
<path d="M2510 3810 c0 -5 4 -10 9 -10 6 0 13 5 16 10 3 6 -1 10 -9 10 -9 0
-16 -4 -16 -10z"/>
<path d="M2377 3699 c7 -7 15 -10 18 -7 3 3 -2 9 -12 12 -14 6 -15 5 -6 -5z"/>
<path d="M2735 3394 c-16 -8 -37 -22 -45 -31 -9 -10 1 -7 25 7 64 37 78 54 20
24z"/>
<path d="M2661 3326 c-7 -9 -11 -42 -9 -87 l3 -73 35 -7 c106 -20 116 -20 144
6 22 20 26 32 26 79 0 69 -16 81 -116 90 -55 4 -74 3 -83 -8z m74 -16 c16 -7
13 -9 -17 -9 l-38 -1 0 -55 0 -55 35 0 c19 0 35 -5 35 -11 0 -6 -7 -8 -16 -5
-9 3 -27 6 -40 6 -23 0 -24 3 -24 63 0 35 3 67 7 70 8 9 33 8 58 -3z m86 -10
c14 -8 19 -21 19 -51 0 -56 -14 -79 -50 -79 -31 0 -35 9 -21 44 6 17 8 17 14
3 3 -8 1 -18 -6 -21 -7 -2 0 -5 14 -5 30 -1 39 14 39 65 0 38 -18 45 -44 18
-15 -14 -16 -13 -16 10 0 28 17 33 51 16z m-71 -29 c0 -5 -9 -7 -20 -4 -11 3
-20 7 -20 9 0 2 9 4 20 4 11 0 20 -4 20 -9z m63 -21 c-6 -23 -12 -24 -33 -9
-13 9 -13 10 2 6 9 -3 19 1 22 9 8 21 15 17 9 -6z m-63 -24 c0 -20 -4 -22 -27
-17 -26 5 -27 6 -5 9 16 2 22 8 18 18 -3 8 -1 14 4 14 6 0 10 -11 10 -24z"/>
<path d="M2483 3104 l-58 -56 63 53 c34 30 62 55 62 56 0 9 -15 -3 -67 -53z"/>
<path d="M2375 3020 c4 -6 11 -8 16 -5 14 9 11 15 -7 15 -8 0 -12 -5 -9 -10z"/>
<path d="M2700 3620 c14 -4 36 -8 50 -8 23 -1 23 0 5 8 -11 5 -33 8 -50 8 -29
0 -29 0 -5 -8z"/>
<path d="M2519 3453 l-135 -46 -57 26 c-31 14 -57 22 -57 17 0 -12 93 -60 115
-60 30 0 263 80 275 95 17 20 14 20 -141 -32z"/>
<path d="M3281 3223 c1 -17 38 -87 38 -75 1 16 -26 82 -33 82 -4 0 -6 -3 -5
-7z"/>
<path d="M3321 3114 c0 -11 3 -14 6 -6 3 7 2 16 -1 19 -3 4 -6 -2 -5 -13z"/>
<path d="M3471 2254 c0 -11 3 -14 6 -6 3 7 2 16 -1 19 -3 4 -6 -2 -5 -13z"/>
<path d="M3313 1790 c0 -36 2 -50 4 -32 2 17 2 47 0 65 -2 17 -4 3 -4 -33z"/>
<path d="M2735 1611 c17 -18 44 -42 60 -54 l30 -20 -30 32 c-16 18 -43 42 -60
54 l-30 20 30 -32z"/>
<path d="M3360 1285 c-7 -25 -10 -48 -8 -51 3 -2 11 16 17 42 15 61 8 68 -9 9z"/>
<path d="M3341 1204 c0 -11 3 -14 6 -6 3 7 2 16 -1 19 -3 4 -6 -2 -5 -13z"/>
</g>
</svg>