<?xml version="1.0" standalone="no"?>
<!DOCTYPE svg PUBLIC "-//W3C//DTD SVG 20010904//EN"
 "http://www.w3.org/TR/2001/REC-SVG-20010904/DTD/svg10.dtd">
<svg version="1.0" xmlns="http://www.w3.org/2000/svg"
 width="512.000000pt" height="512.000000pt" viewBox="0 0 512.000000 512.000000"
 preserveAspectRatio="xMidYMid meet">
<metadata>
Created by potrace 1.16, written by Peter Selinger 2001-2019
</metadata>
<g transform="translate(0.000000,512.000000) scale(0.100000,-0.100000)"
fill="#000000" stroke="none">
<path d="M2617 5007 c-162 -90 -356 -267 -404 -366 l-31 -64 -11 39 c-7 21
-14 60 -18 87 -3 26 -9 47 -13 47 -12 0 -87 -176 -104 -245 -9 -32 -16 -73
-16 -91 0 -53 -12 -124 -22 -124 -4 0 -17 15 -28 33 -16 26 -20 28 -20 12 0
-12 5 -26 12 -33 7 -7 9 -12 5 -12 -9 0 -47 42 -47 52 0 5 5 6 10 3 11 -7 12
27 1 65 -6 21 -9 15 -20 -38 -16 -73 -4 -169 34 -282 14 -42 19 -67 12 -64
-16 6 -227 31 -227 27 0 -22 141 -264 185 -319 l34 -41 -39 -12 c-21 -6 -55
-18 -76 -27 l-37 -16 49 -27 c28 -15 75 -45 106 -67 l56 -41 -71 -23 -72 -24
44 -8 c82 -14 325 -99 380 -131 29 -18 57 -42 62 -55 7 -19 3 -25 -31 -42 -37
-19 -42 -19 -70 -5 -40 21 -54 19 -88 -10 -20 -17 -42 -25 -67 -25 -24 0 -58
-12 -92 -31 -50 -29 -58 -31 -93 -20 -56 16 -97 14 -180 -13 -41 -13 -105 -31
-142 -41 -102 -26 -102 -26 -78 -113 11 -41 32 -96 45 -123 23 -44 24 -54 15
-96 -6 -26 -10 -74 -9 -107 2 -53 -2 -68 -30 -111 -47 -74 -69 -143 -77 -239
-7 -87 -7 -88 -43 -111 -20 -12 -54 -41 -75 -64 l-40 -41 -23 48 c-12 26 -23
58 -23 71 0 24 -51 116 -76 137 -7 5 -46 9 -87 8 -73 -2 -117 -15 -117 -34 0
-4 -17 -18 -37 -31 -48 -28 -63 -47 -63 -78 0 -13 -9 -44 -20 -67 l-21 -42 26
-63 c15 -35 38 -77 51 -94 13 -18 24 -39 24 -47 0 -8 9 -23 20 -33 12 -10 30
-34 41 -52 13 -20 29 -33 42 -33 11 0 28 -7 36 -14 25 -23 156 -75 256 -103
88 -25 93 -25 238 -13 l147 12 53 54 c69 73 89 119 92 214 2 70 7 85 59 190
31 63 61 138 67 165 7 28 14 57 16 64 2 9 14 -8 28 -36 13 -28 39 -76 59 -107
38 -60 42 -76 26 -107 -9 -16 -7 -21 15 -29 14 -5 28 -18 31 -27 3 -10 11 -28
16 -40 8 -17 8 -26 -2 -38 -7 -8 -10 -21 -7 -29 3 -8 -1 -22 -8 -33 -8 -10
-11 -28 -8 -40 3 -15 -7 -42 -30 -80 -19 -32 -53 -94 -76 -138 -28 -55 -54
-89 -81 -109 -35 -26 -40 -35 -38 -65 2 -31 -12 -56 -105 -184 -96 -133 -107
-152 -107 -190 0 -24 -11 -83 -24 -133 -20 -77 -32 -101 -90 -178 -39 -53 -64
-96 -61 -105 6 -19 45 -210 45 -220 0 -4 -16 -26 -36 -50 -32 -37 -36 -47 -31
-83 3 -24 -1 -57 -10 -82 -24 -66 -5 -251 23 -223 4 3 1 41 -5 84 -10 64 -10
85 1 117 l14 38 28 -121 c26 -113 29 -121 52 -121 l23 0 -19 45 c-11 25 -34
93 -50 152 l-31 105 27 56 28 57 14 -35 c11 -26 12 -42 4 -62 -6 -16 -6 -30
-2 -33 5 -3 19 -20 32 -37 12 -17 16 -28 9 -23 -11 6 -12 -2 -6 -41 l7 -49
-31 30 -31 29 10 -31 c6 -17 26 -55 43 -84 l32 -54 65 -3 c75 -4 121 11 212
70 l63 40 -65 -66 -64 -66 45 0 c39 0 50 5 80 36 18 20 108 96 199 169 206
165 238 202 247 285 9 86 23 85 23 -3 l0 -74 -57 -49 c-32 -28 -119 -98 -193
-156 -154 -122 -251 -215 -210 -203 14 4 50 25 80 48 l55 40 -44 -46 -44 -46
139 0 139 0 33 51 32 50 -24 79 -24 78 80 72 80 72 -7 91 c-4 50 -11 115 -15
144 -6 50 -5 56 42 135 26 45 48 85 48 89 0 5 15 8 33 8 31 0 33 -2 65 -90
l32 -89 -8 -152 -7 -153 53 -69 c58 -73 58 -74 32 -167 -12 -44 -11 -47 20
-97 18 -29 39 -53 46 -53 20 0 18 7 -17 62 l-31 49 16 57 c22 81 21 88 -28
145 -66 78 -65 77 -56 227 5 74 10 137 12 140 1 3 5 -53 8 -125 4 -106 8 -130
20 -130 13 -1 61 -35 163 -116 20 -16 20 -16 -8 -98 -29 -82 -29 -82 -46 -59
l-17 23 -7 -28 c-5 -19 0 -45 17 -85 l25 -57 79 -3 79 -3 -26 28 c-50 56 -52
67 -3 20 49 -46 53 -48 102 -45 l52 3 -71 104 c-39 56 -64 99 -57 95 7 -4 72
-52 145 -107 77 -58 139 -97 150 -95 12 2 -15 26 -82 75 -153 109 -187 143
-75 75 109 -68 200 -115 248 -131 30 -9 37 -7 56 12 61 61 153 275 138 318 -8
20 -10 18 -15 -17 -7 -45 -48 -127 -80 -162 -23 -25 -75 -55 -117 -66 -14 -4
-2 6 25 22 51 30 109 81 101 90 -3 2 -17 -5 -33 -16 -15 -11 -55 -33 -89 -50
l-61 -31 -42 24 c-126 72 -493 439 -453 453 6 2 27 -4 47 -13 34 -13 26 -3
-66 92 -57 60 -113 124 -125 143 -13 23 12 3 75 -61 160 -161 440 -329 547
-329 59 0 69 6 88 50 14 34 46 176 46 202 0 7 -22 -32 -49 -87 -58 -120 -76
-138 -136 -138 -45 0 -47 1 -163 120 -64 66 -164 164 -222 218 -58 53 -94 92
-80 85 31 -16 333 -115 380 -125 49 -10 41 -4 -155 124 -192 125 -189 114 -36
147 47 10 80 19 73 22 -6 2 -84 -4 -173 -13 -88 -9 -162 -15 -164 -13 -2 2 56
45 129 96 72 51 148 105 167 122 31 26 26 25 -53 -15 -49 -24 -132 -74 -185
-110 l-98 -67 110 105 c61 58 108 107 105 110 -3 4 -46 -24 -94 -61 -124 -93
-141 -103 -71 -41 33 30 83 75 110 102 56 53 46 53 -64 -3 -34 -16 -61 -28
-61 -26 0 3 18 46 40 97 51 117 24 98 -57 -41 -31 -52 -67 -113 -80 -135 l-25
-40 7 50 c3 28 9 68 12 89 8 55 -11 39 -32 -27 -10 -28 -21 -56 -26 -61 -25
-28 -33 281 -11 514 18 200 34 200 98 2 l42 -127 -4 100 c-3 55 -7 115 -9 132
-3 27 0 33 15 33 15 0 26 -19 50 -92 l31 -93 -6 60 c-3 33 -8 76 -11 95 -5 35
-5 35 9 10 8 -14 29 -72 47 -130 18 -58 38 -123 46 -145 15 -42 15 -38 -2 58
-4 23 6 11 38 -48 43 -80 78 -135 78 -123 0 21 -70 200 -116 296 -41 87 -50
114 -39 118 33 13 51 -3 92 -86 51 -101 52 -95 18 57 -5 22 -3 23 69 23 l74 0
27 -67 c16 -38 43 -103 60 -145 18 -43 32 -78 31 -78 -2 0 -31 43 -65 95 -35
52 -65 95 -67 95 -5 0 30 -96 68 -190 44 -106 78 -205 79 -228 0 -9 16 21 36
68 27 65 33 88 24 100 -37 51 -146 288 -137 298 4 4 22 -33 83 -173 19 -44 50
-100 69 -125 32 -41 35 -49 29 -90 -6 -42 -2 -52 59 -155 59 -99 66 -115 66
-165 0 -34 11 -87 30 -140 28 -83 41 -103 163 -245 l29 -33 -22 -78 c-12 -44
-26 -83 -30 -88 -5 -4 -15 14 -23 40 -13 42 -15 45 -16 20 -1 -29 -2 -29 -17
-10 -20 24 61 -130 89 -170 33 -46 32 -12 -1 49 -17 30 -27 55 -23 55 4 0 27
-28 51 -62 l43 -62 -12 -74 c-7 -41 -25 -117 -41 -168 -26 -89 -27 -94 -9 -94
11 0 21 9 24 23 3 12 14 58 24 102 l19 80 26 -55 c17 -35 26 -72 26 -103 0
-62 24 -60 28 2 3 33 -5 61 -33 119 -32 68 -35 82 -29 128 6 52 5 53 -44 114
l-50 62 20 72 c11 39 22 78 25 87 3 10 -25 51 -74 107 -66 76 -83 104 -111
179 -22 61 -32 105 -32 145 0 52 -6 66 -65 167 -62 104 -65 112 -56 150 8 35
6 43 -19 73 -37 45 -190 365 -183 383 3 8 2 23 -2 32 -12 27 -13 87 -3 94 6 4
6 14 -1 28 -11 19 -8 23 19 39 60 33 62 35 51 65 -10 26 -7 33 38 87 27 32 66
84 86 114 20 31 41 56 45 56 4 0 11 -15 14 -32 18 -97 111 -233 198 -291 30
-20 60 -42 67 -50 6 -8 18 -57 27 -108 26 -165 91 -313 159 -367 18 -14 21
-22 13 -36 -8 -15 0 -28 46 -75 58 -59 77 -98 101 -212 12 -56 12 -71 0 -105
-8 -21 -14 -52 -15 -69 -1 -62 -29 -139 -57 -160 -56 -40 -61 -50 -56 -101 8
-98 35 -193 57 -207 27 -17 135 -39 149 -30 6 4 36 8 66 9 105 5 173 19 187
40 17 23 37 45 58 62 9 7 16 22 16 34 0 11 10 41 22 65 21 41 21 48 10 126 -7
45 -20 114 -30 153 -12 47 -15 76 -9 86 7 9 3 50 -11 119 -12 57 -24 148 -28
202 -4 62 -12 101 -20 108 -9 7 -14 34 -14 73 0 79 -16 175 -40 244 -29 82
-124 244 -179 304 -65 71 -73 90 -82 183 -11 114 -32 175 -94 265 -64 94 -80
139 -58 170 23 32 70 169 83 238 6 34 8 78 4 97 -10 57 -40 67 -228 71 -89 3
-167 7 -174 9 -7 3 -35 -1 -63 -7 -44 -10 -55 -9 -85 7 -33 17 -37 17 -69 2
-35 -17 -35 -17 -97 23 -59 37 -63 38 -90 24 -15 -8 -28 -21 -28 -29 0 -8 -5
-15 -10 -15 -15 0 -167 78 -174 89 -14 22 51 62 157 96 67 22 68 22 35 29
l-33 7 71 38 c94 49 194 114 194 125 0 5 -30 6 -66 3 l-67 -5 61 54 c79 71
144 158 199 268 34 69 40 87 26 81 -25 -11 -123 -28 -129 -23 -2 3 7 33 21 67
23 56 75 233 75 254 0 5 -14 -3 -31 -18 -37 -30 -129 -79 -129 -68 0 5 7 30
15 57 20 65 65 299 65 334 -1 27 -1 26 -20 -9 -21 -40 -74 -90 -120 -114 l-30
-16 0 188 -1 188 -21 -30 c-29 -40 -95 -102 -151 -142 l-45 -32 -23 124 -24
125 -11 -83 c-6 -46 -16 -92 -21 -102 -9 -15 -13 -10 -30 36 -35 93 -35 100
-2 168 16 35 43 84 60 109 16 24 29 46 27 48 -4 3 -117 -72 -214 -144 -53 -39
-85 -55 -128 -64 -48 -9 -59 -9 -67 3 -16 23 0 110 30 172 16 31 29 57 28 57
-1 0 -28 -15 -60 -33z m-71 -87 c-81 -77 -108 -134 -114 -244 -4 -88 14 -242
38 -326 14 -47 13 -55 -5 -40 -8 7 -15 19 -15 27 0 8 -4 12 -9 9 -24 -15 -62
149 -56 240 2 33 2 49 -1 36 -3 -12 -21 -39 -40 -60 -70 -75 -120 -212 -112
-308 2 -35 0 -44 -13 -44 -44 0 -234 41 -246 53 -13 12 -6 13 44 5 32 -5 86
-15 121 -23 35 -8 64 -15 65 -15 2 0 1 31 -1 68 -3 43 2 93 12 133 25 98 99
237 163 309 69 75 39 65 -33 -12 -30 -31 -68 -88 -90 -133 -37 -76 -39 -79
-42 -47 -7 75 80 197 216 300 41 32 93 72 115 89 62 48 63 40 3 -17z m46 -53
l-4 -78 -41 -26 c-23 -14 -54 -37 -69 -51 l-27 -25 13 56 c15 64 31 93 90 158
23 25 41 45 41 45 0 -1 -1 -36 -3 -79z m353 41 c-67 -108 -100 -191 -103 -263
-4 -66 -20 -105 -44 -105 -11 0 -10 107 2 149 5 19 6 30 1 25 -16 -17 -33 -85
-36 -144 -3 -47 -10 -67 -35 -102 -18 -23 -34 -49 -37 -55 -3 -7 -10 -13 -15
-13 -6 0 -9 33 -7 85 2 46 1 81 -2 77 -19 -21 -40 -118 -38 -170 3 -41 -2 -68
-15 -97 -19 -39 -19 -39 -28 -15 -6 14 -12 73 -15 132 -6 102 -4 110 22 163
15 31 52 83 82 115 30 33 52 60 48 60 -3 0 -45 -23 -93 -51 -48 -28 -92 -52
-99 -53 -7 -1 -16 -6 -20 -11 -4 -4 -2 -5 5 -1 23 13 12 0 -18 -22 l-30 -23 0
37 c0 31 8 45 44 80 43 41 69 53 197 88 38 11 85 37 150 85 52 38 98 70 102
70 5 1 -4 -18 -18 -41z m-26 -203 c12 -47 6 -70 -23 -95 -14 -11 -16 -7 -16
31 0 59 11 120 20 114 4 -3 13 -25 19 -50z m329 -152 c-3 -92 -8 -147 -16
-155 -9 -9 -12 6 -13 68 l-1 79 -13 -40 c-8 -22 -14 -59 -14 -82 -1 -23 -5
-45 -11 -48 -15 -9 -12 63 5 119 17 56 14 72 -5 26 -18 -44 -30 -37 -30 18 0
29 -4 42 -9 34 -4 -7 -6 -68 -3 -135 3 -90 0 -140 -12 -189 -15 -64 -63 -170
-104 -231 l-19 -27 39 -42 c66 -71 94 -194 72 -308 -11 -53 -24 -13 -24 75 0
91 -11 139 -40 175 -19 24 -19 22 1 -25 13 -29 24 -79 26 -120 l4 -70 -26 45
c-15 25 -28 50 -29 57 -1 7 -5 15 -8 19 -4 3 -4 13 -1 22 4 10 2 14 -2 9 -5
-4 -23 20 -41 53 -18 33 -44 70 -58 81 -37 29 -32 41 17 37 49 -4 58 5 105 97
29 59 65 165 58 172 -2 2 -11 -17 -20 -42 -10 -25 -22 -45 -27 -45 -6 0 -7 -5
-3 -12 4 -6 3 -8 -4 -4 -6 3 -14 1 -19 -6 -4 -7 -19 -22 -31 -33 -18 -15 -15
-7 12 34 44 65 47 83 6 39 l-31 -33 20 35 c11 19 27 60 35 90 8 30 30 93 50
140 20 46 36 86 36 88 0 2 -21 -22 -46 -53 -25 -31 -48 -54 -51 -52 -2 3 -1
22 3 43 5 28 27 59 87 123 44 47 92 101 106 119 33 42 35 36 29 -145z m-231
74 c-3 -18 -10 -48 -15 -67 -10 -35 -10 -35 -11 16 -1 28 2 66 5 84 6 27 9 29
16 15 6 -9 8 -31 5 -48z m-834 -104 c18 -34 22 -63 9 -63 -18 0 -54 98 -58
155 l-4 60 18 -60 c10 -33 26 -74 35 -92z m-35 -215 c16 -45 18 -56 6 -51 -8
3 -21 17 -30 32 l-15 26 6 -30 c12 -55 -16 -11 -35 57 -19 64 -25 56 -21 -25
2 -31 0 -36 -14 -31 -32 13 -3 211 48 327 l22 52 6 -150 c5 -113 12 -164 27
-207z m810 174 c3 -83 1 -127 -7 -135 -8 -8 -11 13 -11 83 0 51 -2 91 -4 89
-2 -2 -9 -83 -15 -179 -12 -178 -27 -293 -42 -320 -12 -21 -12 -2 2 97 7 53 7
91 1 114 -9 29 -10 30 -11 9 -1 -14 -8 -47 -16 -75 -9 -29 -13 -36 -10 -17 2
17 3 32 1 32 -2 0 -19 -43 -37 -95 -18 -52 -37 -95 -44 -95 -18 0 -40 21 -74
73 -18 26 -45 57 -61 69 -16 12 -27 25 -24 29 2 4 -1 11 -7 15 -8 5 -9 3 -4
-6 5 -8 3 -11 -6 -8 -8 3 -13 10 -12 17 2 6 -11 18 -27 26 -38 19 -40 11 -2
-9 15 -8 21 -15 14 -16 -30 0 -128 33 -148 51 -33 31 -35 22 -6 -23 66 -100
91 -143 87 -146 -2 -2 -38 21 -81 52 -42 31 -81 56 -86 56 -5 0 -6 5 -2 12 4
6 3 8 -4 4 -6 -3 -22 -2 -35 3 -67 26 -27 250 65 364 l23 28 -3 -90 c-5 -105
15 -185 53 -221 28 -27 32 -21 9 15 l-15 23 69 -28 c129 -52 148 -67 216 -170
20 -30 36 -51 36 -47 0 13 -31 70 -57 104 -14 18 -19 33 -13 35 6 2 22 30 35
62 27 67 78 147 144 226 45 53 45 54 11 29 -54 -40 -136 -146 -179 -232 -32
-65 -40 -75 -51 -62 -17 20 -1 57 72 167 41 61 81 106 139 153 44 37 83 73 86
82 14 36 27 -27 31 -145z m127 89 c-38 -38 -71 -68 -73 -67 -9 10 19 44 72 87
33 27 63 49 66 49 3 0 -26 -31 -65 -69z m-552 -28 c-15 -31 -28 -79 -31 -105
-3 -27 -9 -51 -13 -54 -13 -7 -11 89 2 123 10 27 56 93 64 93 2 0 -8 -26 -22
-57z m-364 -198 c0 -5 -7 3 -15 18 -8 16 -17 61 -20 100 l-4 72 20 -90 c11
-49 20 -94 19 -100z m1216 21 c-22 -109 -64 -236 -79 -236 -2 0 5 32 16 71 23
83 20 100 -6 29 -10 -28 -22 -48 -26 -45 -5 3 -11 -3 -14 -13 -7 -22 -83 -98
-91 -90 -4 4 79 211 102 253 3 6 -23 -18 -58 -53 l-65 -62 -1 41 c-1 23 2 50
7 59 5 10 46 39 90 65 44 26 95 61 113 79 17 17 33 30 35 30 2 -1 -8 -58 -23
-128z m-319 46 c-15 -28 -46 -61 -46 -48 0 7 53 76 58 76 1 0 -4 -13 -12 -28z
m-1085 -172 c10 -6 74 -22 141 -35 147 -30 231 -67 293 -129 62 -62 59 -91 -6
-45 -68 48 -301 140 -317 125 -2 -3 22 -12 54 -22 64 -18 149 -58 159 -74 8
-13 -20 -13 -63 -1 -43 13 -40 6 8 -19 22 -11 40 -22 40 -25 0 -5 -88 28 -124
47 -12 6 3 -14 32 -44 43 -44 50 -57 39 -66 -19 -16 -60 7 -126 71 l-53 52 21
-43 c12 -24 38 -61 58 -82 19 -22 31 -40 25 -40 -21 0 -102 112 -123 171 -24
66 -34 74 -18 13 15 -52 44 -108 86 -166 48 -66 25 -68 -36 -3 -61 64 -111
166 -135 272 -22 99 -21 112 5 79 11 -14 29 -31 40 -36z m1489 -107 c-60 -184
-127 -297 -203 -344 -74 -45 -77 -35 -10 34 57 57 73 79 119 162 l17 30 -37
-33 c-20 -18 -68 -48 -106 -67 -76 -38 -100 -44 -80 -20 7 8 17 15 23 15 12 0
119 61 115 66 -2 2 -48 -12 -102 -30 -55 -19 -92 -37 -86 -41 24 -15 50 -90
49 -145 -1 -96 -16 -103 -21 -10 -4 66 -11 97 -31 138 -15 28 -33 52 -39 52
-7 0 -1 11 12 24 14 13 63 36 110 51 47 15 111 41 143 58 54 28 131 95 133
117 3 21 4 23 10 17 3 -3 -4 -36 -16 -74z m-967 32 c20 -14 37 -28 37 -31 0
-7 -40 15 -69 37 -35 28 -11 23 32 -6z m938 5 c-13 -11 -20 -20 -16 -20 13 0
-37 -36 -80 -58 -37 -18 -200 -72 -220 -72 -18 0 29 40 59 49 169 51 203 63
216 72 12 8 9 9 -10 4 -15 -3 -7 4 20 19 54 30 63 32 31 6z m-170 -53 c-10 -9
-11 -8 -5 6 3 10 9 15 12 12 3 -3 0 -11 -7 -18z m-1286 -159 c17 -9 39 -26 50
-38 20 -23 20 -23 0 -17 -11 3 -33 9 -50 13 -28 6 -29 5 -10 -8 11 -8 46 -25
78 -37 56 -23 74 -41 40 -41 -10 0 -58 18 -108 40 -49 22 -91 40 -95 40 -13
-1 91 -59 143 -79 57 -24 76 -51 35 -51 -21 -1 -22 -2 -5 -14 9 -7 17 -21 17
-30 0 -15 -3 -15 -29 -1 -17 8 -58 38 -93 67 l-62 52 34 -48 c19 -27 60 -71
90 -99 33 -30 43 -43 25 -32 l-30 18 29 -32 c17 -17 24 -31 18 -31 -18 0 -99
78 -142 135 -32 44 -160 250 -160 259 0 7 196 -51 225 -66z m-7 36 c75 -31 11
-20 -98 17 -17 6 -11 7 20 3 25 -4 60 -12 78 -20z m612 -11 c24 -14 35 -15 68
-5 43 13 81 5 115 -25 14 -14 20 -14 30 -3 10 10 9 12 -5 7 -25 -9 -22 10 3
23 29 16 58 7 106 -35 43 -36 74 -104 72 -154 -1 -21 -3 -19 -8 9 -5 28 -8 16
-14 -55 -11 -140 -17 -150 -38 -66 -25 100 -60 165 -90 171 -33 7 -35 28 -3
42 25 11 29 10 56 -22 17 -19 25 -25 19 -13 -6 12 -22 31 -37 42 -21 16 -30
18 -50 9 -20 -10 -28 -8 -47 10 -24 23 -62 28 -86 13 -10 -6 -1 -8 26 -4 27 4
43 1 48 -8 6 -9 3 -11 -9 -6 -35 14 -148 -69 -199 -146 -49 -73 -47 -81 5 -22
64 72 156 145 183 145 13 0 29 -8 34 -19 9 -16 7 -17 -15 -13 -48 9 -204 -122
-275 -232 -22 -33 -39 -51 -39 -41 0 69 80 257 141 332 17 21 -3 2 -45 -42
-43 -44 -84 -93 -92 -110 -16 -29 -15 -29 14 5 l31 35 -25 -49 c-13 -27 -24
-59 -24 -70 0 -12 -3 -32 -7 -45 -6 -23 -6 -23 -24 10 -52 98 2 236 111 283
24 10 29 15 15 16 -46 0 -208 -100 -190 -118 3 -3 -4 -11 -15 -19 -23 -16 -51
-61 -30 -48 8 5 11 3 8 -6 -3 -8 -11 -13 -17 -12 -6 2 -10 0 -9 -5 1 -4 -6
-21 -15 -39 -26 -50 -21 -49 33 1 27 25 53 46 57 46 4 0 -20 -25 -54 -55 -34
-31 -65 -66 -69 -78 -7 -21 -7 -21 -15 -2 -11 29 -11 114 1 154 5 19 8 37 5
39 -2 2 -11 -20 -20 -50 -9 -31 -27 -66 -41 -79 l-26 -24 7 35 c4 19 15 53 24
75 19 43 70 109 78 101 3 -3 16 8 30 25 73 86 240 135 313 92z m-244 -16 c-11
-7 -50 -38 -88 -70 -81 -69 -111 -123 -127 -227 -14 -92 -19 -110 -33 -110
-12 0 -2 173 14 234 17 67 164 187 228 185 23 0 24 -1 6 -12z m1174 -55 c0
-11 -101 -71 -139 -82 -35 -10 -35 -7 6 47 20 28 30 32 76 36 28 2 53 4 55 5
1 1 2 -2 2 -6z m-1122 -57 c-16 -13 -28 -27 -28 -31 0 -12 -42 -54 -54 -54 -5
0 3 14 19 30 16 17 25 30 19 30 -5 1 5 12 21 25 39 32 59 32 23 0z m1090 -15
c-33 -57 -93 -129 -162 -191 -33 -30 -56 -48 -52 -41 4 7 -7 4 -26 -8 -18 -11
-36 -20 -40 -20 -22 0 0 24 72 81 44 35 78 64 77 66 -2 1 -19 -2 -38 -7 -116
-32 -151 -10 -61 38 31 16 80 37 109 46 28 10 71 30 95 46 24 16 44 30 46 30
1 0 -8 -18 -20 -40z m-673 -133 c14 -24 25 -51 25 -59 0 -13 -129 -118 -145
-118 -2 0 -2 8 1 18 5 14 3 14 -10 -2 -32 -40 -10 -56 31 -23 50 42 173 127
183 127 6 0 11 -6 11 -12 1 -7 3 -23 4 -36 1 -12 -2 -25 -6 -28 -5 -3 -9 -20
-9 -38 0 -37 -16 -62 -45 -69 -11 -3 -1 -5 23 -6 35 -1 44 3 51 22 5 12 25 46
44 74 40 60 56 111 37 123 -7 4 -9 13 -5 20 11 18 54 -28 61 -67 5 -26 -4 -62
-36 -151 -75 -207 -93 -231 -238 -321 -110 -69 -126 -71 -204 -31 -86 45 -170
103 -200 138 -13 16 -42 78 -63 138 -21 60 -45 118 -54 128 -9 11 -10 16 -3
12 8 -5 12 0 12 14 0 21 1 21 34 -7 18 -15 37 -41 42 -56 5 -16 14 -27 19 -25
6 2 9 7 7 12 -2 6 -6 23 -9 39 -5 24 -3 28 8 22 8 -5 5 1 -5 13 -11 13 -14 22
-7 22 11 0 33 -22 65 -65 14 -18 15 -18 16 -2 0 25 19 21 29 -7 9 -22 29 -36
52 -36 6 0 7 5 4 11 -4 6 2 5 13 -2 31 -20 17 -28 -29 -18 -23 6 -44 8 -46 5
-3 -3 8 -8 23 -11 16 -4 49 -13 73 -21 24 -7 48 -11 53 -8 5 3 37 8 71 10 34
2 76 9 92 14 l30 9 -34 -2 c-20 -1 -36 3 -38 11 -4 9 5 11 36 6 34 -5 41 -4
41 10 0 9 9 25 19 35 11 11 16 23 13 27 -4 4 2 4 13 0 11 -4 16 -4 13 0 -4 3
3 15 15 25 39 32 6 20 -62 -22 -36 -23 -89 -52 -118 -65 l-53 -24 -9 33 c-6
21 -9 25 -10 12 -2 -53 -51 -42 -136 28 -35 29 -39 52 -7 40 15 -6 16 -5 2 13
-14 18 -14 18 2 5 10 -7 16 -16 14 -20 -2 -3 18 -21 45 -39 49 -32 63 -27 34
12 -24 32 -19 45 18 42 17 -2 24 -1 15 1 -10 2 -18 8 -18 13 0 10 163 150 176
150 2 0 15 -20 29 -43z m162 -4 c-3 -10 -5 -4 -5 12 0 17 2 24 5 18 2 -7 2
-21 0 -30z m-987 -48 c11 -13 8 -15 -14 -15 -16 0 -25 -4 -21 -10 3 -5 17 -10
31 -10 32 0 80 -25 88 -45 4 -12 0 -14 -22 -10 -24 5 -24 4 -6 -4 30 -13 40
-31 17 -30 -43 2 -220 97 -205 110 9 10 71 27 98 28 12 1 27 -6 34 -14z m410
-25 c27 -52 25 -64 -5 -44 -17 11 -36 14 -55 10 -18 -3 -30 -1 -30 5 0 11 54
69 64 69 3 0 15 -18 26 -40z m490 36 c0 -2 -7 -7 -16 -10 -8 -3 -12 -2 -9 4 6
10 25 14 25 6z m-713 -53 c-8 -10 -23 -31 -31 -48 -14 -27 -14 -31 2 -49 16
-18 16 -19 -8 -13 -14 4 -31 7 -37 7 -20 0 -16 40 5 40 9 0 29 21 45 47 15 25
31 43 34 39 3 -3 -1 -14 -10 -23z m993 -30 c0 -109 -22 -154 -104 -214 -62
-46 -78 -34 -21 15 50 44 50 44 31 65 -16 18 -17 21 -3 21 9 0 20 -8 26 -17
18 -32 24 30 7 71 -8 20 -11 36 -5 36 5 0 14 -10 18 -22 9 -22 9 -22 16 -3 4
11 11 30 17 41 6 12 7 31 3 43 -4 12 -2 21 4 21 7 0 11 -23 11 -57z m-200 33
c0 -3 -4 -8 -10 -11 -5 -3 -10 -1 -10 4 0 6 5 11 10 11 6 0 10 -2 10 -4z
m-770 -73 c1 -45 1 -47 14 -24 17 31 30 11 15 -23 -9 -20 -9 -29 1 -41 11 -14
14 -13 26 2 7 10 14 13 14 8 0 -6 -5 -16 -11 -22 -13 -13 -5 -43 10 -43 6 0 8
8 5 18 -5 14 -4 14 4 2 6 -8 8 -18 5 -23 -2 -4 7 -19 22 -33 33 -31 27 -41
-13 -20 -34 18 -90 78 -103 113 -12 33 -12 133 1 133 6 0 10 -21 10 -47z
m1085 -33 c-36 -24 -94 -44 -102 -36 -4 3 2 15 11 25 17 19 41 26 96 29 25 2
25 2 -5 -18z m-1185 -30 c16 -10 9 -14 -35 -23 -11 -2 10 -7 47 -11 57 -7 101
-27 87 -40 -2 -2 -60 10 -129 27 l-125 30 40 13 c49 15 95 17 115 4z m320
-275 c6 0 9 -2 8 -5 -2 -3 4 -17 13 -30 18 -29 81 -181 76 -186 -3 -3 -77 16
-85 22 -5 3 -39 149 -47 196 -6 41 -5 42 10 23 9 -11 20 -20 25 -20z m633 -26
c34 -17 64 -33 65 -34 7 -6 -10 -45 -19 -45 -23 0 -119 74 -119 91 0 24 0 24
73 -12z m-853 -22 c-40 -89 -50 -276 -18 -315 11 -13 286 -180 355 -216 31
-16 35 -16 75 5 84 42 234 133 323 194 l90 63 89 156 c49 86 94 156 100 156
16 -1 89 -53 94 -67 2 -7 -3 -13 -11 -13 -10 0 -24 -22 -36 -55 -30 -79 -26
-95 10 -44 76 106 129 144 168 120 12 -8 8 -15 -18 -36 -42 -36 -33 -43 16
-12 58 38 107 50 169 42 l55 -7 -38 -27 c-21 -15 -45 -36 -53 -46 -14 -17 -14
-17 20 0 19 10 53 30 76 46 43 29 97 36 229 31 l60 -3 -52 -18 c-29 -10 -78
-35 -110 -56 -80 -52 -281 -256 -333 -338 -24 -37 -45 -65 -48 -63 -10 11 43
157 89 246 49 94 49 95 15 57 -19 -21 -47 -68 -62 -103 -16 -35 -32 -64 -36
-64 -5 0 -8 17 -8 37 0 53 -11 34 -32 -55 l-18 -77 5 85 c3 47 7 103 10 125
l6 40 -25 -50 c-13 -27 -29 -61 -34 -75 -10 -23 -11 -21 -12 20 -4 86 -16 101
-23 27 -7 -78 6 -243 28 -332 l14 -60 -40 -41 -40 -41 61 -7 61 -7 -27 -47
c-41 -72 -130 -184 -168 -212 -37 -27 -39 -49 -2 -25 25 16 36 11 36 -16 0
-19 -33 -31 -67 -24 -13 3 -34 7 -48 10 -14 3 -23 10 -20 15 4 6 -7 7 -27 3
-30 -6 -32 -5 -19 11 8 9 68 55 134 102 66 46 116 84 111 84 -5 0 -59 -26
-119 -57 -65 -33 -104 -49 -95 -38 18 22 11 19 -55 -25 -57 -39 -115 -66 -155
-75 -26 -5 -2 14 100 80 134 86 173 115 167 122 -8 8 -83 -27 -243 -114 -94
-51 -174 -93 -177 -93 -14 0 -6 25 16 48 l22 24 -35 -15 c-19 -8 -56 -25 -82
-38 -26 -12 -50 -20 -54 -16 -15 14 64 63 281 173 216 110 432 227 446 242 7
7 -42 230 -60 272 -8 19 -9 -6 -4 -96 l6 -121 -184 -97 c-206 -110 -314 -179
-407 -260 -35 -31 -70 -56 -78 -56 -20 0 -64 23 -159 85 -112 72 -113 73 -96
52 7 -9 56 -49 107 -88 52 -40 94 -73 94 -75 0 -11 -148 67 -252 133 -21 13
-38 20 -38 15 0 -13 59 -65 139 -123 41 -29 69 -55 63 -57 -7 -2 -40 5 -74 16
-35 11 -76 23 -93 27 l-30 6 30 -25 c17 -14 35 -26 40 -27 17 -3 -78 -17 -118
-18 l-37 -1 5 38 c5 32 -1 47 -39 107 -24 38 -43 71 -41 73 2 2 23 -9 47 -26
49 -33 108 -65 108 -58 0 3 -30 25 -67 50 -93 62 -93 62 -147 146 l-48 74 6
76 c15 192 19 363 8 356 -7 -4 -12 -16 -12 -27 0 -11 -4 -18 -9 -15 -13 8 -41
-79 -42 -128 l-1 -41 -15 38 c-15 36 -33 49 -33 25 0 -9 -4 -8 -10 2 -5 8 -10
58 -11 110 -1 52 -4 83 -6 67 -2 -15 -9 -25 -14 -22 -16 11 -10 -108 10 -184
13 -48 15 -71 7 -68 -6 1 -65 84 -131 183 -112 167 -123 180 -158 188 l-39 10
104 28 c226 61 224 61 265 51 l38 -9 -30 -17 c-27 -15 -28 -16 -8 -17 12 0 61
20 109 45 47 25 88 45 92 45 3 0 -12 -19 -34 -42 -42 -44 -65 -78 -78 -113 -8
-23 -7 -22 64 65 29 36 62 71 73 79 19 13 20 13 12 -5 -26 -63 -34 -100 -39
-184 -4 -52 -11 -113 -16 -135 -12 -50 -12 -77 1 -47 5 13 18 75 29 138 30
170 77 284 116 284 10 0 8 -11 -6 -43z m169 6 c24 -97 24 -99 -9 -123 -26 -18
-38 -21 -80 -15 -49 7 -50 8 -50 41 0 31 4 36 59 64 33 16 63 34 66 40 4 6
-20 -3 -54 -20 -47 -23 -61 -27 -61 -15 0 14 82 64 107 65 7 0 17 -17 22 -37z
m202 -115 c65 -80 76 -98 64 -108 -25 -21 -54 0 -85 59 -16 32 -43 82 -59 110
-57 96 -31 76 80 -61z m322 26 c-27 -62 -32 -68 -71 -79 -23 -7 -42 -10 -42
-6 0 3 16 31 35 61 38 58 98 117 103 101 2 -5 -10 -40 -25 -77z m130 59 c42
-29 61 -64 52 -94 -6 -16 -17 -19 -86 -19 -52 0 -79 4 -79 11 0 24 23 88 30
84 4 -2 12 7 18 20 14 31 17 31 65 -2z m670 10 c-7 -2 -19 -2 -25 0 -7 3 -2 5
12 5 14 0 19 -2 13 -5z m-919 -135 c-4 -7 -13 -20 -21 -29 -13 -15 -10 -16 29
-8 127 25 180 31 223 25 39 -6 44 -10 34 -22 -21 -26 -45 -34 -181 -61 -239
-48 -497 -31 -622 40 -66 37 -58 47 37 47 115 0 179 -14 262 -55 39 -19 75
-35 82 -35 6 0 45 25 85 55 78 59 83 62 72 43z m-825 -265 c-1 -80 -3 -91 -10
-58 -7 36 -2 155 7 155 2 0 3 -44 3 -97z m1904 63 c25 -54 30 -123 14 -198
-16 -76 -7 -93 13 -23 l13 46 28 -33 c37 -44 84 -133 98 -185 6 -23 15 -79 19
-124 l8 -82 -27 31 c-16 17 -33 51 -40 74 -6 24 -18 57 -26 73 -20 38 -72 105
-82 105 -5 0 23 -62 60 -137 56 -112 77 -144 111 -171 121 -94 168 -165 189
-284 6 -38 13 -68 16 -68 3 0 3 27 1 60 -5 72 -1 66 42 -60 22 -65 34 -121 38
-179 l5 -84 -34 9 c-19 5 -74 9 -124 9 -79 -1 -97 -4 -145 -29 -30 -15 -66
-38 -79 -50 l-23 -21 -44 50 c-55 61 -99 147 -114 221 -11 50 -10 59 12 102
13 27 34 52 49 60 21 10 28 21 34 60 3 26 17 68 30 93 l24 47 -22 19 c-12 11
-33 28 -47 36 l-26 17 -12 -45 c-12 -44 -28 -59 -96 -84 -56 -22 -176 71 -229
176 -30 58 -57 147 -56 182 0 16 7 3 18 -34 9 -33 23 -69 30 -80 l13 -20 -7
20 c-28 85 -36 143 -26 181 14 51 36 72 103 96 l53 19 -70 -5 c-69 -4 -70 -4
-47 15 26 21 41 19 170 -18 46 -13 100 -35 120 -48 l37 -25 3 47 c4 60 -19
123 -71 191 -22 29 -38 54 -36 56 10 9 67 25 90 25 19 1 29 -7 42 -33z m-2217
-71 c-3 -27 -3 -41 0 -30 3 11 10 35 15 52 l10 33 23 -27 24 -27 -24 -36 c-12
-19 -25 -48 -29 -65 -4 -22 3 -13 25 29 41 76 49 67 10 -12 -16 -33 -30 -73
-30 -87 0 -24 5 -22 60 36 l59 63 26 -24 c36 -34 31 -47 -25 -60 -68 -16 -139
-75 -172 -142 -40 -80 -44 -112 -6 -44 35 64 88 126 107 126 6 0 -4 -30 -23
-67 -51 -100 -54 -131 -4 -39 24 43 55 88 70 99 24 18 32 19 67 8 23 -6 45
-20 51 -31 25 -47 4 -173 -43 -251 -49 -80 -59 -84 -137 -49 -47 21 -81 30
-122 30 -74 0 -75 -15 -1 -24 56 -6 151 -41 141 -51 -3 -3 -34 3 -69 14 -35
11 -85 23 -111 26 l-48 6 0 72 c0 107 23 183 77 255 21 28 27 31 41 20 14 -11
15 -10 8 7 -28 75 -26 189 5 247 17 32 30 3 25 -57z m2097 32 c27 -45 54 -134
44 -143 -6 -6 -76 63 -115 114 l-26 34 25 19 c35 27 44 24 72 -24z m-88 -72
c19 -30 35 -56 35 -59 0 -3 -29 9 -65 26 l-65 32 27 28 c15 15 28 28 30 28 2
0 19 -25 38 -55z m-2491 -384 c21 -33 -48 -62 -103 -43 -26 9 -35 6 -82 -29
-60 -43 -69 -46 -69 -24 0 8 4 15 10 15 5 0 29 17 51 38 37 33 50 38 108 43
36 3 69 7 73 7 4 1 9 -2 12 -7z m63 -110 c-3 -11 -9 -4 -20 21 -24 52 -21 70
4 29 11 -18 18 -41 16 -50z m-57 33 c0 -6 -19 -15 -42 -19 l-43 -9 45 -5 45
-6 -45 -12 c-28 -8 -70 -33 -112 -68 -58 -47 -81 -75 -64 -75 2 0 11 -3 19 -6
9 -3 38 16 73 47 107 94 151 109 192 67 28 -30 40 -78 19 -78 -8 0 -20 7 -27
15 -11 13 -23 6 -84 -49 -50 -45 -83 -66 -109 -71 -38 -7 -46 -22 -25 -43 16
-16 28 -15 28 2 0 23 20 29 39 12 27 -24 39 -20 98 34 53 49 90 62 119 42 27
-18 45 -88 27 -106 -4 -4 -14 7 -23 23 l-15 31 -35 -47 c-19 -26 -50 -57 -69
-70 -31 -21 -35 -21 -68 -8 -48 20 -49 20 -19 -19 l26 -34 -42 3 c-37 3 -47 9
-80 50 -21 26 -38 51 -38 55 0 5 -12 23 -26 40 -23 27 -27 40 -27 98 1 50 -1
58 -6 32 -6 -34 -7 -34 -19 -13 -6 12 -12 29 -12 38 0 33 45 93 97 128 51 33
59 36 129 34 49 -1 74 -5 74 -13z m359 -70 c39 -8 40 -20 1 -27 -34 -7 -80
-35 -80 -48 0 -5 13 -3 30 6 43 22 127 38 165 31 42 -8 111 -74 120 -115 14
-63 -15 -91 -112 -109 l-52 -9 -67 75 c-73 80 -116 112 -151 112 -30 0 -29 11
5 42 51 47 76 55 141 42z m289 -70 c-21 -21 -29 -24 -44 -15 -14 8 -15 11 -4
11 8 0 26 9 40 20 34 26 40 15 8 -16z m-375 -65 c68 -45 101 -116 95 -209 -2
-38 -9 -75 -16 -82 -11 -11 -11 -8 -3 15 42 111 -28 257 -139 287 -47 13 -51
20 -12 20 16 0 49 -14 75 -31z m418 2 c-16 -22 -21 -44 -21 -89 0 -33 -9 -88
-20 -123 -17 -53 -28 -70 -65 -99 -25 -19 -52 -35 -60 -34 -8 0 -30 1 -47 2
-25 2 -30 5 -18 12 8 5 26 10 39 10 29 0 87 34 95 56 5 13 2 15 -16 10 -13 -4
-41 -9 -63 -11 -22 -3 -50 -7 -62 -10 -13 -3 -23 -2 -23 3 0 17 25 32 55 32
35 0 115 34 115 50 0 17 18 11 23 -7 6 -28 37 85 37 134 0 30 7 50 22 68 29
34 34 32 9 -4z m-454 -58 c17 -42 17 -145 -1 -186 -7 -18 -26 -43 -42 -57
l-29 -25 22 25 c57 66 70 173 29 253 -15 31 -18 43 -8 35 8 -7 21 -27 29 -45z
m1272 33 c-3 -3 -99 -9 -214 -15 -116 -5 -217 -12 -225 -15 -9 -4 -20 2 -28
14 -12 20 -10 20 230 20 133 0 239 -2 237 -4z m477 -19 c17 -17 -13 -25 -61
-16 -27 6 -122 14 -210 19 l-160 8 212 -2 c116 0 215 -4 219 -9z m660 -20 c16
-9 22 -16 14 -16 -17 -1 -100 35 -100 43 0 7 53 -10 86 -27z m-1316 -28 c-85
-4 -188 -10 -227 -12 -67 -5 -84 -1 -66 16 3 4 106 6 227 6 l221 -2 -155 -8z
m383 4 c-23 -2 -64 -2 -90 0 -26 2 -7 3 42 3 50 0 71 -1 48 -3z m247 -13 c15
-5 -20 -6 -85 -3 -60 3 -112 7 -114 9 -9 8 175 2 199 -6z m-165 -41 c160 -10
209 -18 194 -33 -2 -3 -47 2 -99 9 -52 8 -162 18 -245 23 -82 5 -123 10 -90
11 33 0 141 -4 240 -10z m-480 -6 c-33 -2 -115 -7 -181 -11 -96 -6 -120 -4
-117 5 4 10 48 13 182 11 97 -1 149 -3 116 -5z m-125 -63 c0 -6 -9 -29 -21
-51 -30 -61 -18 -56 20 6 22 36 40 55 52 55 19 0 19 -1 -1 -40 -28 -56 -50
-145 -49 -205 l0 -50 19 71 c25 96 73 208 91 212 13 2 13 -10 3 -90 -7 -51
-13 -129 -13 -173 l0 -80 42 167 c40 158 50 188 62 176 3 -2 0 -98 -6 -211 -6
-114 -9 -256 -7 -316 3 -122 0 -121 -43 3 -25 70 -29 76 -35 52 -3 -15 -4 -51
-2 -81 3 -30 3 -55 2 -55 -10 0 -99 139 -115 178 l-18 47 -1 -41 c0 -23 7 -61
15 -85 l15 -44 -30 35 c-34 39 -38 25 -10 -37 10 -24 17 -43 14 -43 -2 0 -31
14 -64 30 -33 17 -60 28 -60 26 0 -3 61 -50 135 -106 74 -55 135 -102 135
-105 0 -2 -37 20 -82 49 -88 57 -247 140 -254 133 -3 -2 54 -42 125 -88 72
-46 130 -87 131 -90 0 -4 -60 -21 -132 -39 -73 -17 -135 -34 -138 -37 -6 -7
214 6 238 13 23 7 -263 -272 -311 -304 -72 -48 -29 -32 84 32 128 71 233 134
297 178 64 44 50 27 -30 -38 -133 -106 -228 -187 -224 -191 7 -7 87 37 171 94
98 67 82 51 -110 -109 -234 -194 -342 -268 -394 -268 -33 0 -89 58 -123 128
-33 66 -33 68 -32 207 0 110 5 158 22 225 12 47 22 100 22 118 0 25 24 67 105
182 81 116 105 158 105 183 0 26 9 40 44 70 28 23 54 58 71 94 34 75 116 215
122 209 3 -2 -13 -35 -35 -73 -52 -89 -102 -193 -93 -193 4 0 19 26 35 58 50
101 119 212 134 212 8 0 12 -6 9 -12 -55 -126 -68 -161 -65 -168 2 -5 30 36
63 91 53 87 63 99 88 99 15 0 27 -5 27 -10z m-1185 -58 c-3 -3 -18 7 -33 23
l-27 28 33 -23 c18 -12 31 -25 27 -28z m1993 23 c-3 -3 -9 2 -12 12 -6 14 -5
15 5 6 7 -7 10 -15 7 -18z m-2023 -45 c13 -6 15 -9 5 -9 -8 0 -22 4 -30 9 -18
12 -2 12 25 0z m98 -17 c-13 -2 -35 -2 -50 0 -16 2 -5 4 22 4 28 0 40 -2 28
-4z m82 -22 c-6 -5 -23 -12 -40 -15 -28 -6 -28 -5 5 8 43 18 46 18 35 7z m360
-41 c13 -6 15 -9 5 -9 -8 0 -22 4 -30 9 -18 12 -2 12 25 0z m2631 -129 c60
-27 53 -35 -11 -15 -68 21 -176 14 -233 -15 -24 -12 -61 -38 -83 -58 -50 -45
-65 -35 -18 13 95 99 226 127 345 75z m44 -61 c13 -7 19 -28 24 -87 13 -157
15 -208 8 -183 -13 41 -65 63 -151 64 -58 1 -86 -4 -118 -20 -47 -23 -58 -15
-17 12 47 31 189 31 266 -1 14 -6 15 -2 6 33 -13 54 -46 67 -163 67 -75 0 -96
-4 -128 -22 -47 -28 -55 -29 -32 -3 43 48 204 61 298 25 14 -6 17 -1 17 28 0
44 -8 67 -24 67 -7 0 -30 9 -52 21 l-39 20 44 -6 c24 -3 51 -10 61 -15z m-234
-66 c-71 -25 -106 -25 -45 0 57 23 63 24 89 24 14 0 -4 -10 -44 -24z m194
-204 c44 -12 100 -46 100 -61 0 -6 -14 -2 -32 9 -82 49 -211 60 -274 23 -41
-25 -54 -23 -25 3 48 44 135 54 231 26z m-1830 -51 c15 -28 5 -23 -15 7 -9 15
-12 23 -6 20 6 -4 16 -16 21 -27z m1828 -17 c29 -8 61 -23 71 -33 19 -18 52
-140 71 -265 10 -66 9 -75 -9 -110 -12 -21 -21 -49 -21 -61 0 -12 -10 -29 -22
-37 -12 -9 -28 -26 -34 -38 -9 -17 -28 -26 -76 -36 -69 -14 -248 -20 -289 -9
-29 7 -49 44 -54 99 -2 18 -6 51 -9 73 -5 30 -4 35 3 19 11 -25 31 -41 31 -25
0 17 -23 61 -32 61 -18 0 -6 28 22 48 33 25 40 26 73 11 16 -7 24 -19 24 -37
0 -15 4 -54 8 -86 l8 -59 -63 7 c-62 7 -63 7 -56 -16 3 -13 6 -28 6 -34 0 -6
23 -14 51 -16 28 -3 57 -12 66 -21 11 -11 23 -13 45 -6 16 4 43 6 58 2 20 -3
40 1 63 16 19 11 47 21 63 21 23 0 93 32 94 42 1 13 21 182 25 213 4 30 0 23
-15 -25 -11 -36 -20 -89 -20 -117 l0 -53 -51 0 c-72 0 -119 30 -119 75 0 43
13 50 50 29 16 -10 32 -15 36 -11 10 10 -9 70 -24 75 -10 3 -9 -4 3 -28 9 -17
14 -34 12 -36 -8 -8 -57 56 -63 83 -9 34 10 45 70 37 l49 -6 -34 30 c-32 29
-33 30 -16 55 25 39 21 44 -12 13 -27 -25 -34 -27 -100 -24 -39 2 -71 7 -71
11 0 5 -4 5 -10 2 -5 -3 -19 -1 -30 5 -24 13 -27 58 -6 98 16 30 63 76 86 85
20 8 84 -1 148 -21z m-1418 -247 c0 -3 -22 6 -50 20 -27 14 -50 28 -50 30 0 3
23 -6 50 -20 28 -14 50 -28 50 -30z m1214 2 l58 -52 -58 5 c-84 7 -96 16 -83
63 5 20 13 37 17 37 4 0 33 -24 66 -53z m-1634 -31 c0 -2 -8 -10 -17 -17 -16
-13 -17 -12 -4 4 13 16 21 21 21 13z m-812 -132 c-1 -23 -1 -41 2 -39 3 2 4
-38 2 -90 -5 -107 15 -217 51 -280 22 -37 26 -40 68 -39 33 0 72 14 157 57
138 70 200 111 320 215 51 45 105 90 121 101 l28 20 -13 -57 c-8 -31 -14 -75
-14 -98 0 -38 -5 -45 -72 -104 -40 -35 -136 -105 -213 -155 -77 -50 -175 -117
-219 -148 -43 -32 -84 -57 -92 -57 -15 0 -86 85 -110 132 -21 40 -13 35 27
-18 19 -25 46 -52 62 -60 35 -19 55 -9 162 83 44 37 94 78 110 90 24 17 3 13
-98 -23 -71 -24 -141 -44 -156 -44 -36 0 -91 58 -129 135 -37 76 -47 107 -72
229 l-20 100 26 35 c14 20 35 51 47 68 20 30 22 31 25 11 2 -11 2 -40 0 -64z
m2525 75 c32 -9 36 -12 27 -29 -17 -33 -11 -67 15 -88 l26 -20 -55 -16 c-71
-21 -73 -21 -89 12 -16 31 -31 128 -22 142 8 13 50 13 98 -1z m-1715 -204 c0
-29 0 -29 -8 -5 -4 14 -8 45 -8 70 l0 45 9 -40 c4 -22 8 -53 7 -70z m-114
-440 c12 -46 -13 -62 -32 -21 -7 17 -7 27 1 35 17 17 24 13 31 -14z"/>
<path d="M2391 4664 c0 -11 3 -14 6 -6 3 7 2 16 -1 19 -3 4 -6 -2 -5 -13z"/>
<path d="M2925 3973 c17 -8 38 -22 48 -31 9 -8 17 -10 17 -4 0 13 -62 52 -81
52 -8 -1 0 -8 16 -17z"/>
<path d="M2640 4135 c13 -14 26 -25 28 -25 3 0 -5 11 -18 25 -13 14 -26 25
-28 25 -3 0 5 -11 18 -25z"/>
<path d="M3175 4279 c-4 -6 -5 -12 -2 -15 2 -3 7 2 10 11 7 17 1 20 -8 4z"/>
<path d="M2235 3839 c-4 -6 -5 -12 -2 -15 2 -3 7 2 10 11 7 17 1 20 -8 4z"/>
<path d="M2941 3734 c0 -11 3 -14 6 -6 3 7 2 16 -1 19 -3 4 -6 -2 -5 -13z"/>
<path d="M3024 3603 c2 -10 -3 -35 -10 -55 -17 -49 -10 -48 16 2 23 46 26 70
6 70 -8 0 -13 -8 -12 -17z"/>
<path d="M2991 3568 c-14 -23 -14 -23 8 -4 22 20 25 26 13 26 -4 0 -13 -10
-21 -22z"/>
<path d="M2400 3430 c0 -5 26 -11 58 -11 31 -1 71 -5 87 -9 27 -7 25 -8 -20
-10 -95 -5 -116 -18 -30 -19 44 0 85 3 90 7 25 18 11 31 -49 41 -78 14 -136
14 -136 1z"/>
<path d="M2815 3434 c-102 -20 -125 -27 -125 -35 0 -17 24 -20 110 -11 l85 9
-60 3 c-50 2 -55 4 -30 10 17 4 47 8 68 9 20 0 37 6 37 11 0 10 -45 12 -85 4z"/>
<path d="M2627 3366 c-20 -46 -21 -56 -4 -56 8 0 7 -3 -3 -10 -12 -7 -11 -10
5 -17 17 -6 15 -9 -15 -14 -23 -4 -6 -7 53 -8 48 0 87 3 87 8 0 6 -17 7 -37 4
-31 -5 -36 -3 -25 8 19 20 14 36 -10 35 -20 -1 -24 5 -28 44 l-6 45 -17 -39z"/>
<path d="M2770 3346 c0 -9 14 -15 40 -18 22 -2 40 -2 40 0 0 3 -66 32 -75 32
-3 0 -5 -6 -5 -14z"/>
<path d="M2453 3342 c-6 -4 10 -8 35 -9 31 -1 41 1 31 8 -17 11 -50 11 -66 1z"/>
<path d="M2617 3239 c7 -7 24 -8 54 -1 l44 10 -54 1 c-40 1 -52 -2 -44 -10z"/>
<path d="M2648 3223 c-33 -8 -21 -33 16 -33 25 0 35 5 39 20 5 20 -12 25 -55
13z"/>
<path d="M3196 3083 c-75 -150 -132 -292 -108 -268 15 16 172 326 172 341 0
34 -23 7 -64 -73z"/>
<path d="M1744 3054 c-42 -38 -35 -36 35 8 33 20 39 28 25 28 -12 0 -38 -16
-60 -36z"/>
<path d="M2069 2679 c-7 -24 -13 -70 -13 -102 -1 -46 -4 -56 -16 -52 -8 3 4
-13 28 -34 23 -21 102 -69 175 -106 72 -37 170 -96 216 -131 46 -35 87 -64 92
-64 13 0 304 288 298 295 -8 7 -88 -23 -212 -82 l-98 -47 -47 19 c-28 12 -74
20 -112 21 -61 1 -72 5 -183 69 -64 37 -119 71 -122 75 -3 5 -1 46 4 92 5 46
8 85 6 87 -2 1 -9 -17 -16 -40z"/>
<path d="M3073 2665 c-64 -57 -100 -72 -89 -35 18 58 14 60 -18 11 -22 -33
-48 -60 -67 -68 -44 -18 -44 -17 -17 20 13 17 27 37 31 44 9 15 -131 -44 -271
-114 -106 -54 -111 -58 -90 -71 28 -16 18 -14 -100 23 -80 25 -282 68 -289 61
-8 -7 347 -160 371 -159 6 0 56 26 110 58 101 58 138 77 234 114 l52 21 -15
-37 c-9 -20 -26 -51 -39 -67 -40 -55 -41 -61 -5 -37 18 12 84 47 144 77 l110
54 -55 -7 c-30 -3 -76 -14 -102 -24 l-47 -18 16 33 c15 32 48 56 76 56 7 0 39
27 72 60 33 33 57 60 55 60 -3 0 -33 -25 -67 -55z"/>
<path d="M2330 2674 c22 -20 39 -39 37 -41 -3 -2 -28 5 -58 16 -29 11 -54 19
-56 17 -2 -2 39 -29 92 -61 53 -32 98 -62 101 -66 3 -5 -17 -6 -43 -2 -26 3
-46 3 -43 0 3 -3 40 -19 83 -36 l78 -31 97 63 c86 57 227 172 161 132 -14 -8
-72 -31 -129 -50 l-103 -35 -46 21 c-25 11 -80 40 -123 64 -42 25 -80 45 -83
45 -3 0 13 -16 35 -36z"/>
<path d="M1990 2482 c0 -17 83 -91 113 -102 29 -10 27 -6 -28 50 -54 54 -85
73 -85 52z"/>
<path d="M2955 2250 c-100 -60 -121 -79 -43 -39 62 32 167 103 146 98 -2 0
-48 -27 -103 -59z"/>
<path d="M2335 2950 c33 -5 87 -18 119 -29 73 -26 83 -21 20 9 -33 17 -69 24
-123 26 l-76 3 60 -9z"/>
<path d="M2800 2946 c-44 -12 -113 -45 -96 -46 4 0 45 11 90 24 44 14 90 27
101 29 11 3 4 5 -15 5 -19 0 -55 -5 -80 -12z"/>
<path d="M3630 2545 c10 -27 20 -42 109 -172 23 -34 53 -88 66 -120 15 -36 24
-49 25 -36 0 36 -46 130 -115 233 -71 107 -103 143 -85 95z"/>
<path d="M3912 2223 c17 -41 30 -53 17 -15 -6 18 -15 35 -20 38 -5 3 -4 -7 3
-23z"/>
<path d="M3902 2035 c-7 -14 -12 -43 -11 -63 1 -33 2 -31 15 22 16 64 14 81
-4 41z"/>
<path d="M4131 2035 c10 -23 72 -115 76 -111 8 7 -34 80 -57 101 -13 11 -21
16 -19 10z"/>
<path d="M3918 1991 c-22 -96 2 -265 45 -321 6 -9 0 -3 -15 14 -16 17 -28 27
-28 23 0 -11 71 -87 81 -87 5 0 -2 25 -16 55 -39 89 -47 124 -54 240 -4 83 -8
102 -13 76z"/>
<path d="M4164 1864 c10 -31 9 -53 -8 -145 -11 -60 -16 -112 -13 -116 18 -17
30 24 35 114 5 95 5 97 19 63 l13 -35 -6 40 c-5 36 -39 115 -49 115 -2 0 2
-16 9 -36z"/>
<path d="M3852 1850 c-25 -40 -36 -109 -23 -141 l10 -24 0 26 c1 15 10 57 22
94 23 75 20 93 -9 45z"/>
<path d="M3900 1755 c0 -5 5 -17 10 -25 5 -8 10 -10 10 -5 0 6 -5 17 -10 25
-5 8 -10 11 -10 5z"/>
<path d="M971 1994 c0 -11 3 -14 6 -6 3 7 2 16 -1 19 -3 4 -6 -2 -5 -13z"/>
<path d="M975 1890 c-7 -12 27 -55 58 -72 17 -9 17 -8 4 19 -21 40 -53 67 -62
53z"/>
<path d="M1096 1891 c-4 -7 -5 -15 -2 -18 9 -9 19 4 14 18 -4 11 -6 11 -12 0z"/>
<path d="M2255 1616 c-11 -19 -23 -33 -27 -30 -4 3 -35 -20 -68 -52 -33 -31
-62 -55 -64 -53 -2 2 -10 16 -18 32 l-14 27 -28 -29 -29 -30 23 -63 c12 -35
24 -64 25 -66 1 -2 40 34 85 80 59 59 92 101 113 146 31 67 33 95 2 38z m-38
-73 c-9 -15 -34 -46 -57 -68 l-42 -40 53 72 c55 73 72 87 46 36z"/>
<path d="M1821 649 c-1 -138 1 -141 86 -137 58 3 55 7 -21 23 -29 6 -35 22
-52 140 l-12 90 -1 -116z"/>
<path d="M4286 1037 c3 -10 9 -15 12 -12 3 3 0 11 -7 18 -10 9 -11 8 -5 -6z"/>
<path d="M4032 730 c14 -22 24 -19 15 5 -4 8 -11 15 -17 15 -6 0 -6 -7 2 -20z"/>
<path d="M2293 561 c-38 -32 -81 -73 -98 -91 l-30 -33 46 32 c46 32 169 151
156 151 -3 0 -37 -26 -74 -59z"/>
<path d="M4100 776 c0 -2 8 -10 18 -17 15 -13 16 -12 3 4 -13 16 -21 21 -21
13z"/>
<path d="M2981 1805 c-1 -5 13 -50 29 -100 31 -96 40 -97 15 -1 -14 55 -44
122 -44 101z"/>
<path d="M3128 1053 c6 -2 18 -2 25 0 6 3 1 5 -13 5 -14 0 -19 -2 -12 -5z"/>
<path d="M3524 800 c15 -90 17 -122 7 -172 -14 -80 -66 -208 -100 -248 -26
-32 -33 -35 -78 -34 -63 2 -181 51 -252 105 l-54 41 33 -59 c18 -32 38 -65 45
-73 8 -8 15 -22 17 -30 2 -8 15 -22 29 -31 45 -29 189 -89 212 -89 41 0 85 36
98 80 16 54 22 44 9 -15 -17 -74 10 -83 45 -16 9 19 26 58 36 88 18 53 18 54
-4 111 l-21 57 -12 -40 c-20 -65 -16 -23 7 72 22 95 21 153 -6 233 -8 25 -13
34 -11 20z m-7 -402 c-3 -7 -5 -2 -5 12 0 14 2 19 5 13 2 -7 2 -19 0 -25z
m-10 -50 c-3 -7 -5 -2 -5 12 0 14 2 19 5 13 2 -7 2 -19 0 -25z"/>
<path d="M2820 365 c0 -15 57 -81 64 -74 3 3 -10 23 -29 45 -19 21 -34 34 -35
29z"/>
<path d="M3656 281 c-7 -11 -96 -268 -96 -277 0 -2 13 -4 29 -4 28 0 30 3 44
68 34 151 44 247 23 213z"/>
</g>
</svg>