<?xml version="1.0" encoding="UTF-8" standalone="no"?>
<!-- Created with Inkscape (http://www.inkscape.org/) -->

<svg
   xmlns:dc="http://purl.org/dc/elements/1.1/"
   xmlns:cc="http://creativecommons.org/ns#"
   xmlns:rdf="http://www.w3.org/1999/02/22-rdf-syntax-ns#"
   xmlns:svg="http://www.w3.org/2000/svg"
   xmlns="http://www.w3.org/2000/svg"
   xmlns:sodipodi="http://sodipodi.sourceforge.net/DTD/sodipodi-0.dtd"
   xmlns:inkscape="http://www.inkscape.org/namespaces/inkscape"
   width="210mm"
   height="297mm"
   viewBox="0 0 210 297"
   version="1.1"
   id="svg8"
   inkscape:version="0.92.5 (2060ec1f9f, 2020-04-08)"
   sodipodi:docname="WomFront.svg">
  <defs
     id="defs2" />
  <sodipodi:namedview
     id="base"
     pagecolor="#ffffff"
     bordercolor="#666666"
     borderopacity="1.0"
     inkscape:pageopacity="0.0"
     inkscape:pageshadow="2"
     inkscape:zoom="1.19"
     inkscape:cx="267.25417"
     inkscape:cy="924.08514"
     inkscape:document-units="mm"
     inkscape:current-layer="layer1"
     showgrid="false"
     inkscape:window-width="1920"
     inkscape:window-height="1057"
     inkscape:window-x="-8"
     inkscape:window-y="-8"
     inkscape:window-maximized="1" />
  <metadata
     id="metadata5">
    <rdf:RDF>
      <cc:Work
         rdf:about="">
        <dc:format>image/svg+xml</dc:format>
        <dc:type
           rdf:resource="http://purl.org/dc/dcmitype/StillImage" />
        <dc:title></dc:title>
      </cc:Work>
    </rdf:RDF>
  </metadata>
  <g
     inkscape:label="Layer 1"
     inkscape:groupmode="layer"
     id="layer1">
    <path
       style="fill:#000000;stroke-width:0.14190547"
       d="m 110.9476,285.98093 c -1.25869,-0.27911 -1.68309,-0.57454 -2.06461,-1.43724 -0.18553,-0.41948 -0.46294,-0.82994 -0.61649,-0.91212 -0.41098,-0.21996 -0.88436,-0.94648 -1.02524,-1.57351 -0.11753,-0.52306 -0.0328,-1.10498 0.41605,-2.85776 0.1659,-0.64787 0.0684,-1.23753 -0.26599,-1.60781 -0.56695,-0.62789 -0.62317,-1.02186 -0.5873,-4.11525 0.0237,-2.04218 -0.0404,-3.67223 -0.20364,-5.17955 -0.33136,-3.05973 -0.32224,-3.14737 0.52783,-5.0749 0.404,-0.91608 0.85486,-2.11185 1.0019,-2.65725 0.94304,-3.498 0.62463,-10.54277 -0.94372,-20.87953 -0.87204,-5.74744 -1.03115,-9.24249 -0.58382,-12.82472 0.76874,-6.15616 0.96871,-8.89054 0.80519,-11.01061 -0.22347,-2.8976 -0.76523,-5.47362 -1.7879,-8.50139 -0.50088,-1.48291 -1.0223,-3.30285 -1.15871,-4.04431 -0.25981,-1.41212 -0.26575,-1.88917 -0.1779,-14.2615 0.0177,-2.49753 -0.0362,-5.27534 -0.11981,-6.17289 -0.0836,-0.89755 -0.2227,-2.55784 -0.30904,-3.68954 -0.21866,-2.86627 -0.40205,-4.34144 -0.78503,-6.3148 -0.18177,-0.93657 -0.37357,-2.14986 -0.42623,-2.6962 -0.0527,-0.54633 -0.2172,-1.9119 -0.36566,-3.0346 -0.29683,-2.24469 -0.35481,-5.69467 -0.12308,-7.32449 0.0777,-0.54634 0.27073,-1.49717 0.42902,-2.11293 l 0.28779,-1.1196 -0.29005,-0.30874 c -0.15953,-0.16981 -0.43863,-0.61659 -0.62022,-0.99287 l -0.33017,-0.68411 -0.47069,0.83529 c -0.25887,0.45943 -0.67998,1.09125 -0.9358,1.40406 l -0.465099,0.56874 0.23145,0.92127 c 0.363969,1.4487 0.327029,5.34557 -0.07533,7.94558 -0.441709,2.85446 -0.743298,7.18149 -0.746735,10.71387 -0.0018,1.63901 -0.09647,4.06559 -0.210826,5.3924 -0.165599,1.92127 -0.190383,3.94356 -0.121754,9.93339 0.11381,9.93321 0.03748,10.63833 -1.638563,15.14172 -0.812027,2.18181 -1.332075,4.11292 -1.730094,6.42439 -0.425408,2.47057 -0.378738,3.35949 0.510604,9.72404 0.948226,6.78602 0.948382,7.83483 0.0018,13.05531 -0.81775,4.51039 -0.91237,5.19215 -1.427938,10.28814 -0.452488,4.47248 -0.505448,5.43972 -0.532252,9.72052 0,0 -0.05182,4.39021 -0.0298,4.87486 0.02201,0.48465 0.523129,1.42383 0.523129,1.42383 0.470267,0.94246 0.888401,1.70934 0.966875,2.30012 -0.05241,0.94874 -0.262387,1.63519 -0.571106,2.68223 -0.0018,0.2344 -0.124013,0.78621 -0.271319,1.22628 -0.357501,1.068 -0.490226,3.25699 -0.309432,5.1033 0.218276,2.22898 -0.02231,2.83769 -1.424905,3.6048 -0.416909,0.22804 -1.173089,0.54963 -1.680401,0.71466 -0.786345,0.25581 -0.967299,0.37971 -1.226906,0.84002 -0.167485,0.29698 -0.381216,0.92981 -0.474956,1.40629 -0.325246,1.65319 -0.989282,2.47726 -2.365115,2.93511 -0.628015,0.20899 -0.984956,0.42312 -1.193483,0.71595 -0.419315,0.58888 -1.144779,0.85394 -2.578896,0.94223 -1.539152,0.0948 -2.447544,-0.18427 -2.72159,-0.83605 l -0.173768,-0.41327 -0.349332,0.27479 c -0.754763,0.5937 -2.155577,0.69682 -2.924127,0.21527 -0.172862,-0.10832 -0.478236,-0.19694 -0.67861,-0.19694 -0.488838,0 -1.333746,-0.36396 -1.430556,-0.61624 -0.04291,-0.11184 -0.262621,-0.24026 -0.488234,-0.28538 -0.690327,-0.13807 -0.875936,-0.608 -0.899159,-2.27648 -0.01808,-1.29907 0.01572,-1.52879 0.277005,-1.88245 0.163679,-0.22154 0.451038,-0.47453 0.638575,-0.56218 1.213415,-0.56714 1.853087,-0.93885 3.022417,-1.75635 1.252757,-0.87583 1.602789,-1.12684 3.478348,-2.49434 0.618274,-0.4508 0.950316,-0.85022 1.503106,-1.80816 0.39024,-0.67626 0.976678,-1.60638 1.303199,-2.06693 l 0.59367,-0.83737 0.153382,-2.03734 c 0.08436,-1.12054 0.213513,-2.51628 0.287007,-3.10164 0.4676,-3.72432 -0.263975,-8.59038 -1.819139,-12.09991 -0.388476,-0.8767 -0.970768,-2.5199 -1.293982,-3.6516 -0.323212,-1.13169 -0.810558,-2.6962 -1.082991,-3.47668 -0.402264,-1.15243 -0.574781,-2.03229 -0.918191,-4.68288 -0.232572,-1.79511 -0.643352,-4.86027 -0.912846,-6.81146 -1.015361,-7.35147 -1.078897,-10.7953 -0.301854,-16.36159 0.614088,-4.39896 1.012872,-8.76042 0.995188,-10.88426 -0.05099,-6.12453 -0.1751,-10.4763 -0.323744,-11.35244 -1.264255,-7.45171 -1.842792,-10.55933 -2.436685,-13.08871 -0.160615,-0.68405 -0.513205,-2.23353 -0.783532,-3.44328 -0.872928,-3.90646 -2.001385,-8.11295 -3.673611,-13.69388 -1.321391,-4.41005 -2.048902,-8.78258 -1.865232,-11.21053 0.447883,-5.92061 0.516181,-6.47421 1.5756,-12.77149 0.420171,-2.49754 0.833742,-5.40305 0.919047,-6.4567 0.441997,-5.45942 0.586992,-6.15482 1.997175,-9.57862 1.293693,-3.14098 1.495243,-3.69098 1.924055,-5.2505 0.57536,-2.09251 2.321891,-6.36971 3.380772,-8.27942 1.244593,-2.24465 1.62291,-3.13503 1.938795,-4.56302 0.485642,-2.1954 0.270357,-4.37817 -0.778075,-7.888882 -0.347468,-1.163504 -0.704328,-2.393297 -0.793025,-2.732879 -0.0887,-0.339583 -0.189609,-0.58908 -0.224248,-0.55444 -0.03464,0.03465 -0.219276,1.014908 -0.410299,2.178384 -0.397732,2.422447 -1.260946,6.489887 -1.506245,7.097357 -0.09116,0.22574 -0.217929,0.53817 -0.281712,0.69426 -0.06378,0.15609 -0.158498,0.50731 -0.210475,0.78048 -0.203419,1.06907 -1.745699,4.52848 -3.922402,8.79814 -4.031119,7.90712 -5.4667,10.48365 -8.301966,14.90007 -1.24734,1.94294 -2.481029,4.03961 -4.55064,7.73385 -0.743317,1.32681 -1.656684,2.95518 -2.029704,3.61858 -0.37302,0.66342 -0.906681,1.68334 -1.185914,2.26649 -0.466528,0.97431 -0.507695,1.16416 -0.507718,2.34144 -3.4e-5,1.7962 -0.528223,4.40853 -1.564528,7.73786 -0.303671,0.97559 -0.622946,2.3166 -0.709503,2.98001 -0.08656,0.66341 -0.221726,1.49355 -0.300377,1.84477 -0.07865,0.35122 -0.232238,1.18136 -0.341304,1.84477 -0.240835,1.46492 -0.784666,3.12404 -1.08639,3.31436 -0.31588,0.19925 -1.031907,-0.12878 -1.229969,-0.56346 -0.217182,-0.47666 -0.199032,-0.9501 0.07826,-2.04138 0.2681,-1.05508 0.358956,-4.82616 0.11619,-4.82255 -0.353465,0.005 -0.524849,0.33122 -0.972689,1.85 -0.301667,1.02305 -0.882096,2.43278 -1.567781,3.80781 -1.634664,3.27805 -2.058264,3.9591 -2.666441,4.28703 -0.349392,0.18839 -0.915205,-0.11615 -1.115856,-0.60057 -0.232474,-0.56125 -0.112539,-1.02052 0.687897,-2.63416 1.044437,-2.10553 2.271648,-5.63238 2.108058,-6.05827 -0.03326,-0.0866 -0.361121,0.48118 -0.728591,1.26166 -0.367475,0.78048 -0.926276,1.96184 -1.241779,2.62525 -1.124595,2.36462 -1.488184,3.20608 -1.808861,4.18621 -0.405443,1.23918 -0.738269,1.90977 -1.118607,2.25373 -0.251408,0.22736 -0.355088,0.24229 -0.697587,0.10041 -0.881498,-0.36512 -1.07457,-1.3321 -0.611706,-3.06366 0.873837,-3.26907 1.822822,-5.92378 2.643479,-7.39494 0.26609,-0.47702 0.443044,-0.90806 0.393229,-0.95787 -0.251188,-0.25118 -0.482044,0.0421 -1.185025,1.50586 -0.421706,0.87804 -0.976694,1.95242 -1.233303,2.3875 -0.25661,0.43509 -0.750959,1.54064 -1.098541,2.45682 -0.347591,0.91615 -0.831097,1.91715 -1.07446,2.22442 -0.701472,0.88568 -1.368396,0.71404 -1.714515,-0.44122 -0.1867,-0.62313 -0.02587,-1.64837 0.444159,-2.83154 0.139526,-0.35122 0.396766,-1.14481 0.571645,-1.76354 0.331968,-1.17447 0.610006,-1.85703 1.622738,-3.98363 0.909135,-1.90907 1.924537,-5.52671 1.921822,-6.84695 -9.14e-4,-0.56031 -0.512277,-0.3666 -1.523483,0.5774 -1.439832,1.34415 -2.274194,1.92349 -3.127388,2.17151 -1.304886,0.37935 -2.816018,-0.0443 -3.343589,-0.93742 -0.272388,-0.46113 -0.252733,-0.4807 1.253435,-1.24698 1.773802,-0.90244 3.38726,-2.4846 4.633272,-4.54339 0.498134,-0.82308 0.583146,-0.88931 2.199539,-1.71366 2.234426,-1.13955 4.513051,-2.65469 5.299962,-3.52416 1.146153,-1.26641 1.83741,-2.23067 2.054197,-2.86551 0.117075,-0.34284 0.543261,-1.10913 0.94708,-1.70286 0.902329,-1.32669 3.274979,-5.91085 3.819223,-7.37905 0.220098,-0.59376 0.624725,-1.60512 0.89917,-2.24746 0.688197,-1.61074 2.112927,-6.04832 2.791468,-8.69453 0.686222,-2.67616 2.245351,-7.37146 2.897966,-8.72718 0.262993,-0.54634 0.938748,-1.82349 1.501675,-2.83812 1.24855,-2.25038 1.311388,-2.39555 1.996397,-4.61192 0.699809,-2.264256 0.92077,-3.474293 1.179038,-6.456697 0.205957,-2.37834 0.445768,-3.992375 1.700158,-11.442908 l 0.636412,-3.780012 0.145893,-5.940514 c 0.145057,-5.906499 0.209329,-6.695688 0.847848,-10.410535 0.154274,-0.897552 0.354042,-2.174701 0.443928,-2.83811 0.406783,-3.002274 0.865473,-3.963496 2.782347,-5.830629 0.961638,-0.936685 1.662133,-1.487583 2.248286,-1.768147 0.468289,-0.224147 1.20265,-0.611074 1.631913,-0.859838 0.429264,-0.248764 1.064921,-0.528685 1.412573,-0.622046 0.746055,-0.200353 3.280742,-2.345852 4.239425,-3.588482 0.699443,-0.90661 0.866146,-1.487345 1.719874,-5.991427 0.325459,-1.717056 0.781069,-4.11171 1.012466,-5.321455 0.231396,-1.209743 0.513154,-3.31704 0.626127,-4.68288 0.224277,-2.711524 0.209167,-2.625534 0.786641,-4.47659 0.529787,-1.698198 0.829381,-3.010007 1.003169,-4.392502 0.101978,-0.811244 0.35791,-1.661744 0.896743,-2.980015 0.414719,-1.014624 0.83773,-2.068272 0.940025,-2.34144 0.102296,-0.273168 0.646479,-1.464696 1.209299,-2.64784 1.117765,-2.349736 2.064631,-3.921862 2.892282,-4.8021975 0.293506,-0.3121913 0.727362,-0.8564415 0.964115,-1.2094447 0.878069,-1.3092324 2.161746,-2.2234837 4.652017,-3.3132466 1.63568,-0.7157822 3.76236,-1.0651305 4.64344,-0.7627753 0.33601,0.1153091 0.46124,0.072387 0.89185,-0.3056847 0.58049,-0.509684 1.04549,-0.5548742 2.19548,-0.2133653 0.53206,0.158009 1.02243,0.1997737 1.62219,0.1381634 1.05454,-0.1083273 3.86426,0.3274923 4.81088,0.7462262 0.40014,0.1770036 0.76556,0.4712516 0.94352,0.7597383 0.41841,0.6783326 1.13619,2.2134959 1.13619,2.4300646 0,0.101553 0.22723,0.4047063 0.50496,0.6736719 0.27773,0.2689665 0.7012,0.8402472 0.94104,1.269511 0.82968,1.4849327 1.2502,2.3231327 1.2502,2.4919407 0,0.09323 0.10447,0.256214 0.23216,0.362187 0.3343,0.277445 0.83461,1.10999 1.01371,1.686847 0.29226,0.941366 0.35368,1.784317 0.37224,5.108597 0.0125,2.240026 0.0728,3.430397 0.18359,3.626047 0.0907,0.160196 0.46008,1.245773 0.82077,2.412393 0.73811,2.387289 0.9348,4.049852 0.65388,5.526856 -0.089,0.468288 -0.19751,1.745437 -0.24098,2.838109 -0.0674,1.69419 -0.0385,2.132921 0.19615,2.980015 0.15136,0.546337 0.50373,1.823486 0.78305,2.83811 0.27931,1.014624 0.60899,2.127566 0.73262,2.473205 0.12363,0.345637 0.29357,1.071701 0.37763,1.613472 0.084,0.541772 0.33163,1.408412 0.55017,1.925866 0.21853,0.517452 0.69842,1.866757 1.0664,2.998454 0.70075,2.155065 1.03599,2.855102 1.9489,4.069644 0.41175,0.547808 0.71171,0.789159 1.17835,0.948164 0.3443,0.117315 0.96268,0.430456 1.37419,0.695872 0.4115,0.265415 1.07715,0.687481 1.47924,0.937926 1.05439,0.656747 2.88893,2.624865 3.34302,3.586434 0.44118,0.934234 0.75916,2.395192 0.89116,4.094412 0.0516,0.663408 0.18468,2.190279 0.29591,3.393047 0.26369,2.851655 0.25514,6.495417 -0.0197,8.385107 -0.6315,4.342283 -0.63113,4.333459 -0.33546,8.297084 0.15156,2.03166 0.37384,4.65179 0.49397,5.82251 0.12012,1.17072 0.30937,3.222436 0.42056,4.559365 0.20971,2.521515 0.46607,3.904904 1.19313,6.438313 0.42692,1.487539 0.76654,2.224699 2.67134,5.798239 1.34602,2.52523 2.67086,6.15324 3.5828,9.81136 0.74651,2.99445 2.09773,7.18092 3.04579,9.43671 0.32801,0.78048 0.71185,1.73834 0.85296,2.12858 0.45178,1.24935 2.64922,5.48886 3.57676,6.90065 0.49373,0.75147 0.99438,1.64041 1.11258,1.97538 0.11818,0.33498 0.69728,1.20271 1.28687,1.9283 0.92955,1.14394 1.31107,1.47801 2.87135,2.51415 0.98964,0.65721 2.4464,1.51821 3.23725,1.91336 1.52613,0.7625 1.658,0.88699 2.76625,2.61126 0.88791,1.38143 2.48753,2.81161 4.05604,3.62641 0.64071,0.33282 1.20028,0.66232 1.24348,0.73222 0.1611,0.26067 -0.28321,0.89008 -0.82256,1.16523 -1.72659,0.88084 -3.35649,0.32736 -5.7437,-1.95049 -1.47381,-1.40625 -1.70468,-1.25014 -1.28918,0.87167 0.41473,2.11776 0.92126,3.7612 1.5499,5.02866 0.7788,1.57019 1.61727,3.63433 1.90221,4.68289 0.13786,0.50731 0.33707,1.14589 0.44268,1.41905 0.49563,1.282 0.61617,2.428 0.339,3.22309 -0.15807,0.45344 -0.70169,0.79611 -1.05056,0.66224 -0.3774,-0.14483 -1.17143,-1.5187 -1.63041,-2.82104 -0.24756,-0.70243 -0.67791,-1.68487 -0.95631,-2.1832 -0.27843,-0.49831 -0.8803,-1.66371 -1.33754,-2.58978 -0.45721,-0.92604 -0.89251,-1.68372 -0.96731,-1.68372 -0.32878,0 -0.27666,0.34185 0.17833,1.1695 0.86346,1.57064 2.27032,5.6404 2.73529,7.91256 0.2784,1.36051 0.18171,1.7812 -0.53048,2.30807 -0.74712,0.55269 -1.26432,-0.002 -1.98808,-2.13122 -0.23205,-0.68268 -0.91967,-2.29489 -1.52806,-3.58269 -0.60839,-1.28779 -1.35495,-2.8805 -1.65905,-3.53933 -0.30408,-0.65885 -0.57226,-1.09727 -0.59594,-0.97428 -0.0502,0.26077 0.57635,2.50067 1.04428,3.73313 0.17781,0.46828 0.60802,1.42615 0.95605,2.12858 0.93834,1.89389 1.03054,2.20805 0.79331,2.70284 -0.10834,0.22593 -0.35509,0.48959 -0.54836,0.58592 -0.48326,0.24089 -1.07814,-0.1427 -1.62006,-1.04461 -1.11512,-1.85587 -2.78978,-5.46576 -3.21467,-6.92947 -0.40787,-1.40512 -0.67716,-1.91328 -1.01389,-1.91328 -0.21658,0 -0.12766,3.85056 0.10652,4.61192 0.12002,0.39024 0.23109,1.05011 0.2468,1.46637 0.0255,0.67471 -0.0156,0.79488 -0.37864,1.10755 -0.25589,0.22039 -0.54157,0.33466 -0.76879,0.30747 -0.30883,-0.0369 -0.41196,-0.18816 -0.70699,-1.03662 -0.18998,-0.54633 -0.467,-1.66384 -0.61561,-2.48334 -0.59365,-3.27375 -0.69428,-3.88151 -0.69428,-4.19322 0,-0.17854 -0.22601,-1.04544 -0.50224,-1.92648 -1.08255,-3.45275 -1.51192,-5.46025 -1.61996,-7.57417 l -0.10157,-1.98668 -0.77925,-1.49001 c -2.18038,-4.16901 -5.68724,-10.29647 -7.43117,-12.98435 -2.55872,-3.94368 -4.43733,-7.31379 -8.14758,-14.61626 -2.28061,-4.48866 -3.89068,-8.10995 -4.05755,-9.12608 -0.0864,-0.52613 -0.17313,-0.7904 -0.4745,-1.44588 -0.22422,-0.48771 -0.86546,-3.01099 -1.02338,-4.02701 -0.0713,-0.458765 -0.28683,-1.416627 -0.47894,-2.128576 -0.65753,-2.436694 -0.94587,-4.078869 -1.0572,-6.020912 l -0.11138,-1.943095 -0.0214,1.631916 c -0.0309,2.356692 -0.51607,6.614079 -1.01276,8.886557 -0.83281,3.81032 -0.88831,5.99504 -0.2193,8.63238 0.33687,1.328 0.57807,1.94321 1.89892,4.84349 0.87118,1.9129 1.57072,4.17567 2.14573,6.94068 0.23764,1.14278 0.64806,2.60015 0.91203,3.23861 1.62583,3.93241 2.37194,6.98526 2.78079,11.37802 0.0871,0.93657 0.40607,3.2993 0.70867,5.2505 1.39098,8.96935 1.63261,11.15843 1.51939,13.76484 -0.0632,1.4543 -0.17263,2.17516 -0.51707,3.40572 -0.24031,0.85853 -0.65941,2.6114 -0.93133,3.89526 -0.27193,1.28387 -0.64997,2.84837 -0.84011,3.47669 -0.19013,0.62832 -0.50509,1.74903 -0.69991,2.49049 -0.1948,0.74145 -0.48569,1.82703 -0.6464,2.41238 -0.84349,3.07236 -2.20933,9.27498 -2.92169,13.26817 -0.1253,0.70243 -0.38416,2.04343 -0.57524,2.98001 -0.19108,0.93658 -0.63766,3.45895 -0.9924,5.60527 -0.5915,3.57877 -0.65042,4.1613 -0.71051,7.02432 -0.036,1.71706 -0.17264,4.48372 -0.30354,6.14813 l -0.23803,3.0262 0.38393,2.50811 c 0.21116,1.37946 0.38331,2.89125 0.38255,3.35954 -7e-4,0.46829 0.0911,1.42615 0.20396,2.12858 0.69519,4.32407 0.85702,6.21166 0.85166,9.93339 l -0.005,3.68953 -0.74073,4.39907 c -1.26209,7.49545 -1.42353,8.31561 -2.02512,10.28815 -0.32133,1.05365 -0.73598,2.47206 -0.92144,3.15203 -0.49767,1.82474 -1.37134,4.38988 -2.04387,6.00088 -0.65989,1.58076 -0.96077,2.723 -1.51382,5.74717 -0.39678,2.16964 -0.46737,3.94423 -0.26673,6.7054 0.0874,1.20239 0.0597,1.51885 -0.21071,2.41239 -0.1712,0.56565 -0.36297,1.09231 -0.42614,1.17035 -0.0632,0.0781 -0.15682,0.42927 -0.2081,0.78048 -0.0986,0.67557 0.043,1.149 1.15079,3.84855 0.45654,1.11246 0.62437,1.34392 1.85203,2.5543 1.35493,1.33585 3.05117,3.59614 3.39498,4.52388 0.24788,0.66885 0.242,1.4871 -0.0143,1.98262 -0.18947,0.36639 -0.90274,0.84454 -2.81056,1.88407 -0.25045,0.13647 -0.74272,0.24915 -1.09393,0.25041 -0.35122,0.002 -0.92594,0.10474 -1.27715,0.22996 -1.24614,0.44428 -2.34111,0.19525 -3.03472,-0.69019 l -0.36348,-0.464 -0.0918,0.45801 c -0.0505,0.2519 -0.16395,0.51741 -0.2521,0.58998 -0.13873,0.11424 -1.70062,0.46329 -1.92468,0.43012 -0.0442,-0.006 -0.43159,-0.0898 -0.86086,-0.18495 z"
       id="path4529"
       inkscape:connector-curvature="0"
       sodipodi:nodetypes="ccccccccccsccccsccccccccccccscccccsccccsczccccccccccccccccscccccscscccscsccsssssssscsscssssccsccsccccsscccccccscsscccccccccccccccscccsccsccccsccsccssscssssccsscsssssssccsccccccsccsccccccccccccsccccccccccccccccccccccsccccccccccccscccccccccccccsccccccsccccssccsccccccccccccscscccssccccccccccccccccccccccccccccccc" />
  </g>
</svg>
